<?xml version="1.0" encoding="UTF-8"?>
<!DOCTYPE svg PUBLIC "-//W3C//DTD SVG 1.1//EN" "http://www.w3.org/Graphics/SVG/1.1/DTD/svg11.dtd">
<!-- Creator: CorelDRAW 2021 (64-Bit) -->
<svg xmlns="http://www.w3.org/2000/svg" xml:space="preserve" width="2.41983in" height="1.9618in" version="1.1" style="shape-rendering:geometricPrecision; text-rendering:geometricPrecision; image-rendering:optimizeQuality; fill-rule:evenodd; clip-rule:evenodd"
viewBox="0 0 1711.77 1387.76"
 xmlns:xlink="http://www.w3.org/1999/xlink"
 xmlns:xodm="http://www.corel.com/coreldraw/odm/2003">
 <defs>
  <style type="text/css">
   <![CDATA[
    .fil8 {fill:#727376}
    .fil7 {fill:#5D5E60}
    .fil11 {fill:#4B4B4D}
    .fil5 {fill:#373435}
    .fil13 {fill:#996551}
    .fil9 {fill:#9B6450}
    .fil6 {fill:#A45E4D}
    .fil12 {fill:#001216}
    .fil2 {fill:#00CF79}
    .fil1 {fill:#101010}
    .fil3 {fill:#1BF79B}
    .fil0 {fill:#1D1F20}
    .fil4 {fill:#96979E}
    .fil10 {fill:#AAFAD9}
   ]]>
  </style>
 </defs>
 <g id="Layer_x0020_1">
  <metadata id="CorelCorpID_0Corel-Layer"/>
  <rect class="fil0" width="1711.77" height="1387.76" rx="58.13" ry="56.81"/>
  <g id="_1291261113104">
   <g>
    <path class="fil1" d="M1315.47 832.99c11.55,21.26 -5.83,40.23 -22.97,26.72 -14.49,-11.43 -15.09,-31.78 0.51,-39.65 -4.07,16.03 -13,37.98 17.38,37.52l5.08 -24.59zm-21.06 -81.52c-10.74,25.48 -81.04,31.08 -107.2,35.73l-24.89 10.81c-27.42,25.35 -13.09,6.38 -53.63,48.03 -13.4,-1.43 -29.34,-4.53 -29.99,-19.33 15.16,-12.21 12.31,3.49 26.3,-0.76 -21.92,-15.05 -2.61,-11.6 -39.93,-22.49l-3.35 -9.05 -0.33 -10.06c8.74,-8.21 2.24,-3.94 17.06,-6.48l-5.03 -6.94 -21.25 8.92c-2.06,25.57 -1.67,11.8 8.58,26.25 7.43,10.49 3.11,10.26 6.22,22.25 5.03,19.34 20.86,17.58 35.61,25.78 -5.59,11.76 -10.4,23.88 -20.05,31.43 -2.24,16.12 -30.11,62.91 -39.75,80.31 -18.57,33.56 -18.5,40.34 -58.39,55.77 7.97,8.58 17.62,10.63 31.19,12.31l13.93 -21.97 14.99 18.79c9.35,4.63 18.16,11.45 28.47,15.97 12.62,5.54 22.84,4.83 33.55,10.01 -2.94,8.44 -23.04,53.27 -27.63,58.93 -37.76,46.57 -112.97,-39.36 -171.32,-49.04 -16.55,10.13 -34.88,24 -53.44,29.2 -20.95,19.98 -148.43,87.08 -183.15,107.32 -99.32,57.91 -74.57,58.81 -194.69,-13.21 -56.14,-33.67 -41.59,-34.02 -105.82,-19.7 -114.05,25.43 -256.35,51.06 -370.46,64.24l0 153.26 1711.77 0 0 -690.81 -317.37 124.92c-11.51,-26.09 -3.07,-32.36 -30.43,-55.03 -19.17,-15.88 -45.44,-19 -69.57,-15.38z"/>
    <path class="fil1" d="M492.31 764.36c4.5,-8.55 10.13,-10.71 20.4,-10.77l-20.4 10.77zm80.66 -24.46l-1.57 -44 167.65 -93.86 1.21 14.78 10.34 137.1c-17.32,10.77 -156.43,90.27 -165.41,91.65l-7.83 -80.26c-2.24,-17.19 -4.45,-9.44 -4.39,-25.41zm-99.21 18.23c3.35,-6.03 -0.44,-3.78 6.92,-8.08 11.1,-6.47 7.2,-2.19 12.72,-2.99 -7.58,8.34 -7.61,8.66 -19.65,11.07zm32.01 -22.02c6.83,-4.24 4.05,-1.14 7.69,-2.15 -4.67,10.08 -4.65,7.99 -14.98,9.93 3.8,-6.53 -0.43,-2.99 7.29,-7.78zm-19.8 -0.93c4.36,-9.01 20.78,-16.18 30.01,-18.5 -4.01,9.66 -19.37,16.7 -30.01,18.5zm69.68 -25.67c-2.76,10.17 -24.96,22.54 -38.26,20.64l38.26 -20.64zm-71.06 10.1c4.72,-7.5 -5.16,-1.07 7.24,-8.49 8.28,-4.95 7.38,-2.04 11.94,-2.58 -6.26,8.17 -6.75,8.38 -19.18,11.07zm25.02 -14.21c0.04,-9.11 5.76,-7.81 15.17,-6.89l-15.17 6.89zm-31.74 2.5c4.35,-9.73 6.35,-9.55 17.31,-9.3l-17.31 9.3zm50.09 -13.97c8.38,-10.28 13.26,-12.82 25.07,-13.79 -5.91,9.32 -14.08,12.83 -25.07,13.79zm-59.32 1.85c5,-9.8 50.77,-32.91 61.03,-35.58 -2.95,9.3 -49.66,34 -61.03,35.58zm16.97 -24.19c1.5,-4.39 -3.58,-0.36 5,-7.51 8.22,-6.86 13.19,-8.16 22.1,-7.36l-27.1 14.88zm52.97 -13.8c1.13,-9.34 3.86,-8.76 14.51,-7.93l-14.51 7.93zm29.34 -16.27c-6.01,-9.35 -3.01,-28.56 -2.88,-39.92 25.79,-15.58 147.06,-89.09 166.82,-92.85l4.11 28.44 2.91 53.75c-10.45,9.94 -153.29,90.92 -167.76,95.53l-3.19 -44.94zm-140.91 309.55l170.24 -95.37c27.87,-16.03 55.89,-33.2 83.76,-48.22 26.53,-14.28 58.31,-30.23 82.49,-46.35l-21.68 -274.15c-24.85,8.89 -60.42,33.45 -85.52,46.85 -27.1,14.46 -57.56,31.41 -83.62,47.94 -32.36,20.52 -148.26,78.91 -166.04,97.97l20.38 271.34z"/>
    <path class="fil2" d="M809.42 533.04c4.7,-10.47 11.5,-11.72 22.32,-13.23 -4.31,10.37 -10.15,13.47 -22.32,13.23zm-0.14 -13.49c5.1,-11.54 16.35,-15.69 29,-17.72 -4.73,9.15 -18.18,15.56 -29,17.72zm139.34 -14.4l7.04 0.28c0.8,-21.59 -2.08,-10.49 12.01,-19.16l2.53 -18.44c17.03,1.79 18.18,14.93 18.34,31.03l4.69 4.39c-13.1,9.89 -34.9,27.11 -50.73,26.06 -2.96,-17.07 -8.99,-53.36 0.19,-66.7l5.94 42.54zm68.29 -17.8c-3.61,-17.81 -10.42,-54.19 -1.18,-67.6 8.09,15.16 5.12,40.24 6.66,58.39 11.74,-1.37 25.81,-17.37 44.92,-19.61 -8.19,11.28 -34.68,27.44 -50.4,28.83zm40.47 -108.55c2.6,-9.98 20.08,-18.06 29.49,-18.28 -3.65,8.89 -19.39,17.5 -29.49,18.28zm-264.71 120.12l-4.45 -0.75c4.2,25.2 9.96,137.24 14.51,146.59l-0.94 -19.14 39.82 -0.75c-21.18,-22.47 -13.72,-65.96 0.06,-90.92 6.53,-11.84 16.06,-23.78 26.23,-31.09 18.68,-13.42 26.85,-4.45 44.34,-4.46 5.19,-15.05 5.58,-25.93 14.89,-36.97 -0.74,14.95 -4.05,18.5 -8.38,32.38 -7.04,22.53 -1.73,10.21 5.36,28.91 8.24,21.73 2.9,47.18 -6.37,67.07 20.32,2.49 33.25,16.62 52.14,0.88 13.72,-11.42 19.06,-21.56 28.79,-35.26 17.59,-24.75 40.63,-55.95 71.18,-62.14l-2.96 -13.44c8.79,-9.39 4.85,-8.42 16.48,-8.6l4.14 10.64 29.36 -0.96c-1.58,-21.94 1.55,-62.04 -9.61,-78.32l0.14 37.29c-7.1,-11.96 -6.22,-26.72 -7.61,-40.76 -2.47,-24.91 -6.9,-32.35 2.4,-44.25 3.24,13.67 1.66,32.91 7.7,44.57l-4.9 -67.66 -301.39 171.6c-12.07,1.42 -3.93,7.32 -10.91,-4.43z"/>
    <path class="fil3" d="M719.34 996.33c18.11,9.53 76.9,36.92 94.08,40.15 14.99,-12.09 2.62,-10.53 21.56,-13.6 -16.03,-3.88 -20.16,2.84 -31.75,-8.91 8.78,-22.4 12.98,-2.04 30.91,-12.61l-34.44 -1.16c-1.14,-19.1 -0.52,-12.03 13.47,-17.62 -10.15,-6.05 -10.62,-2.63 -12.54,-13.26 10.2,-12.86 -3.55,-1.52 15.06,-6.09l8.19 -2.13c13.12,-4.18 13.08,-5.32 28.84,-5.42l13.68 16.38c8.42,-14.51 -2.6,-11.07 10.46,-22.74 20.23,8.48 0.99,11.24 16.17,28.41l134.73 -101.09c-8.93,-9.97 -29.94,-16.77 -43.66,-22.62 -64.66,-27.55 -37.34,-31.27 -118.81,30.64 -26.93,20.46 -130.09,95.07 -145.95,111.64z"/>
    <path class="fil4" d="M490.56 962.82c-7.52,-11.79 -9.95,-7.7 -18.16,-15.93l-7.68 -6.62 -44.39 24.51 -15.24 -7.25 -7.17 -85.88c-17,3.28 -80.93,42.82 -101.27,54.27 -15.4,8.67 -91.58,48.84 -95.92,59.73l118.46 30.13c67.77,14.42 36.55,23.25 108.02,-16.57 12.22,-6.81 55.88,-29.55 63.35,-36.39z"/>
    <path class="fil5" d="M730.69 718.86l10 4.41 -52.55 26.99c7.86,-16.51 31.68,-16.46 42.55,-31.4zm0 0c-17.07,2.86 -10.57,8.56 -28.07,10.13 6.63,-10.34 24.37,-19.67 36.39,-20.01l-8.32 9.88zm-80.35 12.99c12.38,-12.4 69.67,-44.17 86.12,-49.45 -7.42,13.3 -27.76,20.34 -41.7,28.68 -12.91,7.73 -29.68,21.29 -44.42,20.77zm-77.36 8.05c-0.07,15.97 2.14,8.22 4.39,25.41l7.83 80.26c8.98,-1.38 148.09,-80.87 165.41,-91.65l-10.34 -137.1c-61.45,35 -100.55,95.46 -160,131.63l-7.29 -8.54z"/>
    <path class="fil3" d="M824.05 679.61c-8.79,-15.71 -3.31,-25.27 13.59,-23.95 6.41,14.89 2.54,23.66 -13.59,23.95zm179.14 -97.61c3.05,-12.2 29.18,-20.94 40.92,-27.7 14.28,-8.22 28.66,-18.81 43.81,-23.76 -6.39,13.2 -68.15,47.02 -84.73,51.46zm25.59 -28.47c2.21,-10.67 45.74,-34.16 57.31,-35.97 -2.91,10.43 -44.82,30.11 -57.31,35.97zm41.07 -60.28c-30.55,6.2 -53.59,37.39 -71.18,62.14 -9.74,13.7 -15.08,23.84 -28.79,35.26 -18.89,15.73 -31.82,1.6 -52.14,-0.88 -7.24,36.44 -63.83,71.8 -76.13,35.09l-39.82 0.75 0.94 19.14 4.95 72.93c5.02,-0.09 282.18,-152.05 313.82,-176.81l-4.64 -59.98 -29.36 0.96 -7.84 25.62c-8.47,-3.27 -8.29,-4.04 -9.82,-14.21z"/>
    <path class="fil1" d="M1193.09 733.47c21.27,21.95 61.83,17.24 90.07,13.53l12.35 -3.38c9.16,-29.1 39.69,-86.02 19.23,-120.27 -12.3,-20.57 -34.01,-73.25 -67.69,-33.75 -15.99,8.74 -29.99,19.83 -40.54,33.96 -19.66,26.3 -13.98,24.61 -6.49,51.19 6.19,21.98 2.43,39.05 -6.92,58.72z"/>
    <path class="fil1" d="M788.22 498.17l2.6 -28.56c24.9,-9.07 54.65,-28.76 77.13,-41.58 13.26,-7.56 25.75,-14.63 38.71,-21.76 13.01,-7.15 22.42,-13.87 38.62,-21.82 29.83,-14.63 131.7,-80.99 157.06,-87.2 2.16,12.49 2.24,21.26 4.53,29.99l-1.9 4.51 4.9 67.66 -2.62 3.16c11.16,16.29 8.02,56.38 9.61,78.32l4.64 59.98c-31.64,24.76 -308.8,176.72 -313.82,176.81l-4.95 -72.93c-4.54,-9.34 -10.3,-121.39 -14.51,-146.59zm-8.48 -36.53c-3.61,24.17 13.38,260.58 20.95,277.73l331.7 -189.11 -19.55 -274.4c-18.93,5.57 -137.64,76.22 -166.06,92.17 -36.06,20.23 -138.14,81.12 -167.04,93.61z"/>
    <path class="fil6" d="M835.09 1023.11l5.39 5.18c14.66,3.84 23.51,12.22 36.94,19.07 6.19,-5.04 -2.51,-1.67 7.9,-3.78 5.17,-1.06 8.14,-0.9 13.4,-0.42 7.52,0.69 16.01,3.35 23.22,5.49 34.32,10.21 111.78,47.16 128.81,28.3 9.27,-23.44 -2.16,-23.32 -5.48,-45.92l-15.03 -18.85 -13.98 22.04c-13.6,-1.69 -23.29,-3.74 -31.28,-12.35 -15.92,3.7 -35.06,-5.52 -51.15,-10.32 -19.91,-5.95 -37.61,-3.32 -36.24,-25.75 -6.92,-3.17 -5.48,2.92 -4.26,-7.96 -15.23,-17.22 4.07,-20 -16.22,-28.5 -13.11,11.71 -2.04,8.25 -10.5,22.81l-13.72 -16.43c-15.81,0.1 -15.77,1.24 -28.93,5.44l-8.21 2.13c-18.67,4.58 -4.88,-6.8 -15.11,6.1 1.92,10.66 2.39,7.22 12.57,13.3 -14.03,5.6 -14.65,-1.49 -13.51,17.67l34.55 1.16c-17.99,10.6 -22.19,-9.82 -31.01,12.65 11.64,11.78 15.78,5.04 31.86,8.93z"/>
    <path class="fil7" d="M779.74 461.63c28.9,-12.49 130.98,-73.39 167.04,-93.61 28.42,-15.95 147.13,-86.6 166.06,-92.17l19.55 274.4 -331.7 189.11c-7.57,-17.15 -24.56,-253.56 -20.95,-277.73zm7.29 289.2c11.43,4 36.14,-13.68 47.53,-22l10.61 7.29c-5.04,-16.57 -6.79,-8.96 25.68,-27.52 27.82,-15.9 92.97,-60.07 112.71,-56.29 -2.03,-10.79 1.95,-10.01 13.99,-16.28 7.23,-3.76 13.43,-7.61 20.56,-11.55 14.64,-8.1 29.42,-16.46 44.13,-24.37l79.53 -45.2 -21.56 -290.45c-20.68,5.13 -69.5,34.66 -90.23,48.16 -25.83,16.82 -59.36,32.58 -86.77,48.67 -56.74,33.31 -113.67,64.65 -172.11,97.87 -3.01,13.1 11.01,218.09 16.5,260.18 1.98,15.16 8.31,25.29 -0.57,31.5z"/>
    <path class="fil7" d="M406.64 679.74c17.78,-19.06 133.69,-77.44 166.04,-97.97 26.06,-16.53 56.52,-33.48 83.62,-47.94 25.1,-13.4 60.67,-37.96 85.52,-46.85l21.68 274.15c-24.18,16.13 -55.96,32.07 -82.49,46.35 -27.87,15.01 -55.9,32.19 -83.76,48.22l-170.24 95.37 -20.38 -271.34zm13.7 285.04l44.39 -24.51 7.68 6.62 -0.87 -10.14c22.22,-13.62 45.13,-26.91 67.8,-39.27 20.99,-11.45 48.34,-35.12 71.16,-37.07 6.68,-10.01 63.45,-39.84 77.63,-46.56 10.53,-7.03 7.32,-6.73 19.23,-7.77 13.32,-18.46 45.37,-26.11 63.72,-41.15 0.48,-10.9 -0.52,-14.52 -1.35,-24.9 -0.13,-1.71 -0.57,-13.1 -0.36,-14.2 3.39,-17.79 -6.12,14.22 2.13,-6.37 8.67,-21.65 -14.01,11.34 3.68,-5.81 3.9,-13.41 2.45,-15.44 -4.6,-26.89l0.35 25.57c-8.83,-18.16 -18.14,-199.18 -21.38,-236.09 -7.36,1.18 -329.9,179.68 -350.44,196.27l21.23 292.27z"/>
    <path class="fil4" d="M397.92 871.66l7.17 85.88 15.24 7.25 -21.23 -292.27c20.55,-16.58 343.08,-195.09 350.44,-196.27 -14.66,-19.67 -27.69,-4.43 -45.56,5.59 -100.99,56.62 -225.68,133.81 -321.9,183.44l15.84 206.38z"/>
    <path class="fil4" d="M770.58 686.76c7.05,11.44 8.5,13.48 4.6,26.89 -2.43,15.73 -6.11,34.12 11.85,37.18 8.88,-6.21 2.55,-16.34 0.57,-31.5 -5.49,-42.08 -19.51,-247.08 -16.5,-260.18 58.44,-33.21 115.38,-64.56 172.11,-97.87 27.41,-16.09 60.93,-31.86 86.77,-48.67 20.73,-13.5 69.55,-43.03 90.23,-48.16 -13.96,-19.85 -29.64,-2.87 -46.3,6.37l-320.1 182.52 16.76 233.41z"/>
    <path class="fil8" d="M916.53 772.1c18.37,-5.46 124.67,-65.77 134.59,-78.3 -9.46,-13.49 -30.35,-16.54 -38.34,-28.72l-17.8 -6.47c-1.66,8.64 -53.67,36.81 -64.43,42.15 -11.59,5.75 -60.77,32.63 -67.2,39.26 8.42,6.49 18.32,10.54 28.06,17.5 23.32,16.65 19.43,3.35 25.1,14.57z"/>
    <path class="fil2" d="M577.97 669.39c-2.53,-19.26 -5.4,-23.97 12.32,-34.2 13.5,-7.79 19.67,-14.74 34.28,-15.83 1.18,20.25 5.89,24.96 -11.62,34.88 -13.28,7.53 -21.81,15.77 -34.97,15.14zm129.34 -96.46c16.69,-12.69 12.27,-5.6 19.29,-6.36l-2.35 21.68c-17.28,-3 -10.05,-3.32 -16.94,-15.33zm-54.64 5.26l-43.39 24.73c-14.09,18.82 -43.56,13.84 -41.37,38.61l3.19 44.94c14.48,-4.61 157.32,-85.59 167.76,-95.53l-2.91 -53.75c-28.62,7.11 -57.66,35.45 -83.29,41z"/>
    <path class="fil8" d="M642.15 929.75c12.44,-5.11 33.06,-13.18 37.76,-25.49 -7.76,-10.74 -23.8,-16.41 -34.99,-24.12l-17.48 -8.97 -135.28 79.3c51.15,42.81 54.86,25.73 71.08,16.92 17.41,-9.45 61.8,-40.62 78.91,-37.64z"/>
    <path class="fil9" d="M877.18 1047.06c10.24,5.37 25.88,8.99 30.37,19.61 58.35,9.67 133.56,95.61 171.32,49.04 4.59,-5.66 24.69,-50.49 27.63,-58.93 -10.71,-5.18 -20.93,-4.47 -33.55,-10.01 -10.3,-4.53 -19.11,-11.34 -28.47,-15.97 3.32,22.52 14.71,22.41 5.47,45.77 -16.98,18.8 -94.2,-18.04 -128.41,-28.21 -7.18,-2.14 -15.64,-4.79 -23.14,-5.48 -5.25,-0.48 -8.2,-0.63 -13.36,0.42 -10.37,2.11 -1.71,-1.25 -7.87,3.77z"/>
    <path class="fil3" d="M1155.06 665.01c26.43,0.23 27.17,34.08 17.06,52.5 -29.52,5.7 -29.04,-37.11 -17.06,-52.5zm-5.34 -3.19c-7.32,6.69 -6.46,17.52 -9.82,28.49 4.08,28.46 15.57,37.6 37.29,44.69l15.9 -1.53c9.35,-19.68 13.11,-36.75 6.92,-58.72 -7.49,-26.58 -13.16,-24.89 6.49,-51.19 10.56,-14.13 24.56,-25.22 40.54,-33.96 29.25,-16 29.5,-11.87 51.54,5.01 0.6,-27.56 -16.4,-40.5 -43.31,-34.83 -7.31,5.09 -18.21,5.56 -24.24,7.64 -13.75,4.75 -32.1,23.24 -40.27,33.62 -16.64,21.13 -22.92,41.5 -41.05,60.78z"/>
    <path class="fil3" d="M788.22 498.17l4.45 0.75c16.31,-1.51 49.97,-22.15 60.38,-34.42 -12.97,-1.31 -8.82,1.57 -16.71,-10.42 7.06,-5.82 13.3,-13.55 21.25,-9.29 10.96,-2.29 74.9,-38.79 81.35,-46.9 -9.67,-5.22 2.68,-7.41 11.46,-11.94 27.65,-14.27 50.85,-34.75 63.81,-24.7 0.98,17.58 -25.43,16.67 -38.75,35.16 35.02,-13.99 102.49,-64.27 131.42,-69.16 -2.29,-8.73 -2.37,-17.51 -4.53,-29.99 -25.36,6.21 -127.23,72.57 -157.06,87.2 -16.21,7.95 -25.61,14.66 -38.62,21.82 -12.96,7.13 -25.45,14.19 -38.71,21.76 -22.48,12.83 -52.24,32.51 -77.13,41.58l-2.6 28.56z"/>
    <path class="fil3" d="M572.97 739.9l7.29 8.54c59.45,-36.17 98.54,-96.63 160,-131.63l-1.21 -14.78 -167.65 93.86 1.57 44z"/>
    <path class="fil1" d="M1137.34 633.8l12.38 28.02c18.13,-19.28 24.41,-39.64 41.05,-60.78 8.17,-10.38 26.52,-28.87 40.27,-33.62 6.03,-2.08 16.93,-2.56 24.24,-7.64 -34.18,0.91 -37.64,-19.41 -81.88,-4.59 -53.04,17.8 -40.22,57.64 -36.05,78.62z"/>
    <path class="fil10" d="M867.08 597.08c0.87,-4.02 -6.56,-2.4 11.25,-12.62 6.62,-3.8 9.41,-5.06 15.19,-6.37 -2.11,9.36 -16.92,15.72 -26.44,19zm-20.71 25.34c10.9,-10.92 50.63,-33.92 68.04,-37.48 9.17,-16.54 7.71,-40.15 4.77,-58.5 -9.15,2.16 -15.2,13.07 -21.23,20.83 -6.1,7.85 -12.45,17.26 -19.91,21.99 -8.44,-15.97 -4.96,-40.9 -9.08,-59.21 -28.53,18.46 -51.21,87.4 -22.59,112.37z"/>
    <path class="fil4" d="M707.35 806.08c6.98,6.28 30.53,12.15 39.59,9.99 5.78,-1.38 32.02,-17.08 38.93,-21.1 21.33,-12.4 55.78,-35.09 77.23,-42.74l-17.93 -16.11 -10.61 -7.29c-11.39,8.32 -36.09,26 -47.53,22 -17.96,-3.06 -14.28,-21.45 -11.85,-37.18 -17.69,17.15 4.99,-15.83 -3.68,5.81 -8.25,20.59 1.26,-11.42 -2.13,6.37 -0.21,1.1 0.22,12.49 0.36,14.2 0.82,10.38 1.82,13.99 1.35,24.9 -18.36,15.04 -50.4,22.68 -63.72,41.15z"/>
    <path class="fil11" d="M472.4 946.89c8.22,8.23 10.64,4.14 18.16,15.93 16.75,2.75 32.83,17.36 48.6,25.55l103 -58.62c-17.11,-2.97 -61.5,28.19 -78.91,37.64 -16.22,8.81 -19.93,25.89 -71.08,-16.92l135.28 -79.3 -16.95 -10.77c-22.82,1.96 -50.17,25.62 -71.16,37.07 -22.67,12.37 -45.58,25.65 -67.8,39.27l0.87 10.14z"/>
    <path class="fil4" d="M854.12 1095.86c18.56,-5.2 36.88,-19.07 53.44,-29.2 -4.5,-10.62 -20.13,-14.24 -30.37,-19.61 -13.38,-6.83 -22.2,-15.19 -36.82,-19.01l-30.45 20.56 -58.13 -24.77 1.96 10.1c24.8,3.95 30.8,12.68 46.72,28.44 15.07,14.9 25.15,17.17 55.98,22.61l-2.33 10.87z"/>
    <path class="fil6" d="M1073.42 770.94l5.03 6.94c-14.82,2.54 -8.31,-1.73 -17.06,6.48l0.33 10.06c16.04,1.93 54,9.15 43.29,31.53 -13.98,4.25 -11.13,-11.45 -26.3,0.76 0.65,14.79 16.58,17.9 29.99,19.33 40.53,-41.65 26.21,-22.68 53.63,-48.03 -20.11,-24.85 -56.82,-33.73 -85.45,-36.44l-3.46 9.37z"/>
    <path class="fil11" d="M845.17 736.12l17.93 16.11c15.77,2.53 31.37,16.53 45.64,24.32l7.79 -4.45c-5.68,-11.23 -1.78,2.07 -25.1,-14.57 -9.75,-6.96 -19.64,-11.01 -28.06,-17.5 6.43,-6.64 55.6,-33.51 67.2,-39.26 10.76,-5.34 62.77,-33.51 64.43,-42.15 -4.7,-8.64 -3.12,-5.03 -11.42,-6.31 -19.74,-3.77 -84.89,40.39 -112.71,56.29 -32.47,18.56 -30.72,10.95 -25.68,27.52z"/>
    <path class="fil1" d="M914.41 584.94c-8.87,24.96 -42.62,71.09 -68.04,37.48 -28.62,-24.97 -5.94,-93.91 22.59,-112.37 4.12,18.31 0.64,43.24 9.08,59.21 7.46,-4.72 13.81,-14.13 19.91,-21.99 6.03,-7.76 12.08,-18.67 21.23,-20.83 2.94,18.35 4.41,41.96 -4.77,58.5zm-13.9 -81.9c-3.01,14.54 -10.59,34.62 -19.51,45.05 -3.24,-13.67 -5.85,-33.53 -1.2,-45.93l20.71 0.89zm-58.91 121.82c12.3,36.72 68.89,1.35 76.13,-35.09 9.27,-19.89 14.61,-45.34 6.37,-67.07 -7.09,-18.7 -12.4,-6.37 -5.36,-28.91 4.33,-13.88 7.64,-17.43 8.38,-32.38 -9.31,11.04 -9.69,21.92 -14.89,36.97 -17.49,0.01 -25.66,-8.96 -44.34,4.46 -10.17,7.31 -19.7,19.25 -26.23,31.09 -13.78,24.96 -21.24,68.45 -0.06,90.92z"/>
    <path class="fil3" d="M567.92 641.53c-2.19,-24.78 27.27,-19.79 41.37,-38.61 -15.12,5 -5.63,2.77 -9.47,-2.55l-7.51 -1.33c15.73,-9.75 50.98,-24.68 59.94,-38.33 -5.41,-5.88 -3.86,-0.73 11.16,-8.83 22.14,-11.94 34.91,-27.13 49.52,-17.53 -2.11,20.09 -26.87,16.53 -60.26,43.84 25.62,-5.55 54.67,-33.88 83.29,-41l-4.11 -28.44c-19.75,3.76 -141.02,77.26 -166.82,92.85 -0.13,11.37 -3.13,30.58 2.88,39.92z"/>
    <path class="fil4" d="M610.49 860.4l16.95 10.77 17.48 8.97c10.82,-18.6 59.76,-36.17 79.14,-50.91l-35.94 -15.39c-14.18,6.71 -70.96,36.55 -77.63,46.56z"/>
    <path class="fil12" d="M938.94 397.89l8.23 4.8 -101.76 55.95c1.63,-6.65 -2.41,-1.46 4.64,-8.85 1.21,-1.28 5.53,-3.48 7.54,-5 -7.95,-4.25 -14.19,3.47 -21.25,9.29 7.89,11.99 3.74,9.1 16.71,10.42 11.22,-2 114.39,-60.57 122.41,-68.1 13.32,-18.49 39.74,-17.58 38.75,-35.16 -12.95,-10.05 -36.16,10.43 -63.81,24.7 -8.78,4.53 -21.13,6.72 -11.46,11.94z"/>
    <path class="fil4" d="M983.56 652.31c8.31,1.28 6.73,-2.34 11.42,6.31l17.8 6.47c7.92,-15.18 61.05,-30.01 73.17,-49.68 -10.45,-6.47 -7.19,-4.82 -19.96,-5.69l-3.75 -9.61c-14.7,7.92 -29.49,16.28 -44.13,24.37 -7.13,3.95 -13.34,7.79 -20.56,11.55 -12.04,6.27 -16.02,5.49 -13.99,16.28z"/>
    <path class="fil3" d="M613.15 1055.64c14.88,-0.99 18.72,1.08 29.97,11.49 -12.09,10.3 -26.38,21.12 -41.98,22.66l44.73 29.97c3.36,-13.57 22.65,-23.2 35.82,-28.32l9.96 3.14 1.81 -4.3 -73.32 -41.44 -6.99 6.8z"/>
    <path class="fil10" d="M975.46 396.4c-8.01,7.52 -111.19,66.1 -122.41,68.1 -10.41,12.27 -44.07,32.91 -60.38,34.42 6.98,11.74 -1.16,5.84 10.91,4.43l301.39 -171.6 1.9 -4.51c-28.93,4.9 -96.4,55.18 -131.42,69.16z"/>
    <path class="fil6" d="M1283.16 746.99c-15.2,11.87 -35.62,8.8 -56.51,10.71 -24.29,2.21 -27.02,16.48 -41.61,14.47l2.17 15.03c26.16,-4.65 96.46,-10.25 107.2,-35.73l1.11 -7.85 -12.35 3.38z"/>
    <path class="fil1" d="M695.39 1089.29l-1.85 4.45 2.78 8.31c-9.17,4.69 -16.01,9.27 -23.6,14.1 -15.18,9.66 -10.21,5.71 -25.91,3.62l-45.67 -30.98 -16.91 -13.51 29.17 -21.8 7.14 -7.03c-12.6,-2.51 -41.06,15.8 -47.06,28.12 6.23,13.74 72.35,53.91 89.7,60.42 13.58,-2.79 36.56,-17.38 44.76,-28.22 -6.46,-18.1 -9.38,-6.75 -12.54,-17.48z"/>
    <path class="fil4" d="M1082.53 885.57c9.64,-7.54 14.46,-19.67 20.05,-31.43 -14.76,-8.21 -30.59,-6.45 -35.61,-25.78 -3.11,-11.99 1.21,-11.75 -6.22,-22.25 -10.25,-14.46 -10.64,-0.69 -8.58,-26.25 -2.92,1.93 -13.78,3.14 -5.13,29.1 7.17,21.49 20.75,63.3 35.5,76.61z"/>
    <path class="fil1" d="M1131.8 693.34c-2.75,31.95 12.95,78.89 51.73,74.85 -2.15,-17.56 -7.06,-13.25 -6.33,-33.2 -21.73,-7.09 -33.22,-16.23 -37.29,-44.69l-8.1 3.04z"/>
    <path class="fil12" d="M893.03 977.76c-1.22,10.84 -2.64,4.77 4.25,7.93 20.29,-13.97 121.64,-88.91 132.35,-103.17l-1.87 -5.85 -134.73 101.09z"/>
    <path class="fil1" d="M652.26 560.71l9.74 2.3 -62.18 37.36c3.83,5.31 -5.66,7.55 9.47,2.55l43.39 -24.73c33.39,-27.31 58.15,-23.75 60.26,-43.84 -14.61,-9.61 -27.37,5.58 -49.52,17.53 -15.03,8.1 -16.57,2.95 -11.16,8.83z"/>
    <path class="fil10" d="M577.97 669.39c13.17,0.63 21.7,-7.62 34.97,-15.14 17.51,-9.92 12.81,-14.63 11.62,-34.88 -14.61,1.08 -20.78,8.03 -34.28,15.83 -17.72,10.23 -14.85,14.94 -12.32,34.2z"/>
    <path class="fil13" d="M1177.19 735.01c-0.73,20.23 4.17,15.86 6.33,33.67l1.52 4.03c14.59,2.04 17.32,-12.42 41.61,-14.67 20.89,-1.93 41.31,1.18 56.51,-10.86 -28.23,3.77 -68.79,8.54 -90.07,-13.72l-15.9 1.55z"/>
    <path class="fil11" d="M846.37 622.42c25.42,33.61 59.17,-12.52 68.04,-37.48 -17.41,3.56 -57.14,26.56 -68.04,37.48z"/>
    <path class="fil12" d="M751.78 1023.83l58.13 24.77 30.45 -20.56 -5.38 -5.17c-18.94,3.07 -6.57,1.52 -21.56,13.6 -17.18,-3.23 -75.97,-30.62 -94.08,-40.15l-1.97 10.14 34.41 17.36z"/>
    <path class="fil2" d="M600.4 1088.78c15.23,-1.52 29.18,-12.22 40.98,-22.4 -10.98,-10.29 -14.73,-12.33 -29.25,-11.36l-27.89 20.84 16.16 12.92z"/>
    <path class="fil1" d="M948.62 505.14l1.91 14.61 38 -20.91c-0.16,-16.09 -1.31,-29.24 -18.34,-31.03l-2.53 18.44c-14.09,8.67 -11.2,-2.43 -12.01,19.16l-7.04 -0.28z"/>
    <path class="fil10" d="M988.53 498.85l-38 20.91 -1.91 -14.61 -5.94 -42.54c-9.18,13.34 -3.15,49.63 -0.19,66.7 15.82,1.05 37.63,-16.17 50.73,-26.06l-4.69 -4.39z"/>
    <path class="fil10" d="M1016.91 487.34c15.72,-1.39 42.22,-17.55 50.4,-28.83 -19.1,2.24 -33.18,18.24 -44.92,19.61 -1.53,-18.15 1.43,-43.23 -6.66,-58.39 -9.25,13.42 -2.44,49.79 1.18,67.6z"/>
    <path class="fil2" d="M646.81 1119.77c15.7,2.09 10.73,6.04 25.91,-3.62 7.59,-4.83 14.44,-9.41 23.6,-14.1l-2.78 -8.31 -10.16 -3.24c-13.45,5.29 -33.14,15.24 -36.57,29.28z"/>
    <path class="fil0" d="M1166.02 712.54c-15.81,-8.86 -14.99,-29.28 -5.77,-42.1 13.6,8.27 14.02,29.37 5.77,42.1zm-10.96 -47.53c-11.98,15.4 -12.46,58.21 17.06,52.5 10.1,-18.43 9.36,-52.28 -17.06,-52.5z"/>
    <path class="fil11" d="M879.8 502.15c-4.65,12.4 -2.04,32.26 1.2,45.93 8.92,-10.42 16.5,-30.5 19.51,-45.05l-20.71 -0.89z"/>
    <path class="fil1" d="M1003.19 582.01c16.57,-4.44 78.33,-38.27 84.73,-51.46 -15.15,4.95 -29.53,15.54 -43.81,23.76 -11.74,6.76 -37.87,15.5 -40.92,27.7z"/>
    <path class="fil3" d="M650.34 731.85c14.74,0.52 31.51,-13.04 44.42,-20.77 13.94,-8.34 34.28,-15.38 41.7,-28.68 -16.45,5.28 -73.74,37.05 -86.12,49.45z"/>
    <path class="fil10" d="M857.59 444.79c-2.01,1.52 -6.32,3.72 -7.54,5 -7.05,7.38 -3.01,2.2 -4.64,8.85l101.76 -55.95 -8.23 -4.8c-6.45,8.11 -70.39,44.61 -81.35,46.9z"/>
    <path class="fil10" d="M1107.25 402.57l2.62 -3.16c-6.03,-11.66 -4.45,-30.9 -7.7,-44.57 -9.3,11.91 -4.87,19.34 -2.4,44.25 1.39,14.04 0.51,28.8 7.61,40.76l-0.14 -37.29z"/>
    <path class="fil4" d="M1166.02 712.54c8.25,-12.73 7.83,-33.82 -5.77,-42.1 -9.22,12.82 -10.04,33.24 5.77,42.1z"/>
    <path class="fil6" d="M1131.8 693.34l8.1 -3.04c3.36,-10.97 2.5,-21.79 9.82,-28.49l-12.38 -28.02 -5.55 59.55z"/>
    <path class="fil3" d="M1105.01 825.95c10.72,-22.39 -27.25,-29.61 -43.29,-31.53l3.35 9.05c37.33,10.89 18.01,7.44 39.93,22.49z"/>
    <path class="fil1" d="M1069.84 493.26c1.53,10.18 1.35,10.94 9.82,14.21l7.84 -25.62 -4.14 -10.64c-11.63,0.18 -7.7,-0.79 -16.48,8.6l2.96 13.44z"/>
    <path class="fil3" d="M1315.47 832.99l-5.08 24.59c-30.38,0.46 -21.45,-21.49 -17.38,-37.52 -15.6,7.86 -15,28.22 -0.51,39.65 17.13,13.51 34.52,-5.46 22.97,-26.72z"/>
    <path class="fil1" d="M1028.77 553.53c12.49,-5.86 54.4,-25.54 57.31,-35.97 -11.57,1.81 -55.1,25.29 -57.31,35.97z"/>
    <path class="fil3" d="M468.64 695.78c11.37,-1.58 58.08,-26.29 61.03,-35.58 -10.26,2.67 -56.03,25.78 -61.03,35.58z"/>
    <path class="fil2" d="M827.83 675.18c-2.81,-12.86 -3.71,-4.79 3.49,-15.31 4.64,10.83 7.1,6.73 -3.49,15.31zm-3.78 4.43c16.14,-0.29 20.01,-9.05 13.59,-23.95 -16.91,-1.33 -22.38,8.24 -13.59,23.95z"/>
    <path class="fil10" d="M599.82 600.37l62.18 -37.36 -9.74 -2.3c-8.97,13.65 -44.22,28.57 -59.94,38.33l7.51 1.33z"/>
    <path class="fil10" d="M707.31 572.92c6.88,12.01 -0.34,12.33 16.94,15.33l2.35 -21.68c-7.02,0.75 -2.6,-6.33 -19.29,6.36z"/>
    <path class="fil3" d="M730.69 718.86c-10.87,14.93 -34.68,14.89 -42.55,31.4l52.55 -26.99 -10 -4.41z"/>
    <path class="fil3" d="M730.69 718.86l8.32 -9.88c-12.02,0.35 -29.76,9.67 -36.39,20.01 17.5,-1.57 11,-7.27 28.07,-10.13z"/>
    <path class="fil10" d="M1057.38 378.79c10.1,-0.79 25.83,-9.39 29.49,-18.28 -9.41,0.22 -26.89,8.3 -29.49,18.28z"/>
    <path class="fil3" d="M517.4 730.15c13.3,1.9 35.5,-10.47 38.26,-20.64l-38.26 20.64z"/>
    <path class="fil10" d="M809.28 519.54c10.82,-2.16 24.27,-8.57 29,-17.72 -12.65,2.03 -23.9,6.18 -29,17.72z"/>
    <path class="fil3" d="M867.08 597.08c9.52,-3.28 24.33,-9.64 26.44,-19 -5.79,1.32 -8.57,2.58 -15.19,6.37 -17.8,10.22 -10.38,8.6 -11.25,12.62z"/>
    <path class="fil3" d="M485.98 735.18c10.63,-1.79 25.99,-8.83 30.01,-18.5 -9.23,2.31 -25.65,9.49 -30.01,18.5z"/>
    <path class="fil10" d="M809.42 533.04c12.18,0.25 18.01,-2.85 22.32,-13.23 -10.82,1.5 -17.62,2.76 -22.32,13.23z"/>
    <path class="fil3" d="M527.96 693.93c10.99,-0.97 19.16,-4.47 25.07,-13.79 -11.81,0.97 -16.69,3.51 -25.07,13.79z"/>
    <path class="fil3" d="M485.6 671.59l27.1 -14.88c-8.92,-0.79 -13.88,0.5 -22.1,7.36 -8.58,7.16 -3.5,3.13 -5,7.51z"/>
    <path class="fil3" d="M484.6 719.61c12.44,-2.7 12.92,-2.9 19.18,-11.07 -4.56,0.54 -3.66,-2.37 -11.94,2.58 -12.4,7.42 -2.52,0.99 -7.24,8.49z"/>
    <path class="fil3" d="M473.76 758.14c12.04,-2.41 12.06,-2.72 19.65,-11.07 -5.52,0.8 -1.63,-3.48 -12.72,2.99 -7.37,4.3 -3.58,2.04 -6.92,8.08z"/>
    <path class="fil10" d="M827.83 675.18c10.59,-8.58 8.13,-4.48 3.49,-15.31 -7.2,10.52 -6.3,2.45 -3.49,15.31z"/>
    <path class="fil3" d="M498.48 743.9c10.33,-1.94 10.32,0.14 14.98,-9.93 -3.64,1 -0.86,-2.09 -7.69,2.15 -7.72,4.79 -3.49,1.25 -7.29,7.78z"/>
    <path class="fil3" d="M492.31 764.36l20.4 -10.77c-10.27,0.06 -15.91,2.22 -20.4,10.77z"/>
    <path class="fil3" d="M477.87 707.9l17.31 -9.3c-10.96,-0.25 -12.96,-0.43 -17.31,9.3z"/>
    <path class="fil3" d="M509.62 705.4l15.17 -6.89c-9.41,-0.92 -15.13,-2.22 -15.17,6.89z"/>
    <path class="fil3" d="M538.58 657.79l14.51 -7.93c-10.65,-0.83 -13.38,-1.41 -14.51,7.93z"/>
   </g>
   <rect class="fil1" transform="matrix(0.672316 -0.49637 0.496549 0.672073 724.159 955.967)" width="45.35" height="2.16"/>
   <rect class="fil1" transform="matrix(0.672316 -0.49637 0.496549 0.672073 727.821 958.64)" width="45.35" height="2.16"/>
   <rect class="fil1" transform="matrix(0.672316 -0.49637 0.496549 0.672073 732.517 962.142)" width="45.35" height="2.16"/>
   <rect class="fil1" transform="matrix(0.672316 -0.49637 0.496549 0.672073 744.292 971.786)" width="45.35" height="2.16"/>
  </g>
 </g>
</svg>
