<?xml version="1.0" encoding="UTF-8"?>
<!DOCTYPE svg PUBLIC "-//W3C//DTD SVG 1.1//EN" "http://www.w3.org/Graphics/SVG/1.1/DTD/svg11.dtd">
<!-- Creator: CorelDRAW 2021 (64-Bit) -->
<svg xmlns="http://www.w3.org/2000/svg" xml:space="preserve" width="2.16148in" height="2.16147in" version="1.1" style="shape-rendering:geometricPrecision; text-rendering:geometricPrecision; image-rendering:optimizeQuality; fill-rule:evenodd; clip-rule:evenodd"
viewBox="0 0 364.96 364.96"
 xmlns:xlink="http://www.w3.org/1999/xlink"
 xmlns:xodm="http://www.corel.com/coreldraw/odm/2003">
 <defs>
  <style type="text/css">
   <![CDATA[
    .fil14 {fill:none}
    .fil8 {fill:#727376}
    .fil7 {fill:#5D5E60}
    .fil11 {fill:#4B4B4D}
    .fil5 {fill:#373435}
    .fil13 {fill:#996551}
    .fil9 {fill:#9B6450}
    .fil6 {fill:#A45E4D}
    .fil12 {fill:#001216}
    .fil2 {fill:#00CF79}
    .fil1 {fill:#101010}
    .fil3 {fill:#1BF79B}
    .fil0 {fill:#1D1F20}
    .fil4 {fill:#96979E}
    .fil10 {fill:#AAFAD9}
   ]]>
  </style>
   <clipPath id="id0">
    <path d="M182.48 0c100.78,0 182.48,81.7 182.48,182.48 0,100.78 -81.7,182.48 -182.48,182.48 -100.78,0 -182.48,-81.7 -182.48,-182.48 0,-100.78 81.7,-182.48 182.48,-182.48z"/>
   </clipPath>
 </defs>
 <g id="Layer_x0020_1">
  <metadata id="CorelCorpID_0Corel-Layer"/>
  <path class="fil0" d="M182.48 0c100.78,0 182.48,81.7 182.48,182.48 0,100.78 -81.7,182.48 -182.48,182.48 -100.78,0 -182.48,-81.7 -182.48,-182.48 0,-100.78 81.7,-182.48 182.48,-182.48z"/>
  <g style="clip-path:url(#id0)">
   <g id="_1327535199088">
    <g>
     <g>
      <path id="_1" class="fil1" d="M285.34 162.86c2.78,5.12 -1.4,9.69 -5.53,6.43 -3.49,-2.75 -3.63,-7.65 0.12,-9.55 -0.98,3.86 -3.13,9.15 4.19,9.04l1.22 -5.92zm-5.07 -19.64c-2.59,6.14 -19.52,7.49 -25.82,8.61l-5.99 2.61c-6.6,6.11 -3.15,1.54 -12.92,11.57 -3.23,-0.34 -7.07,-1.09 -7.22,-4.65 3.65,-2.94 2.97,0.84 6.33,-0.18 -5.28,-3.62 -0.63,-2.79 -9.62,-5.42l-0.81 -2.18 -0.08 -2.42c2.11,-1.98 0.54,-0.95 4.11,-1.56l-1.21 -1.67 -5.12 2.15c-0.5,6.16 -0.4,2.84 2.07,6.32 1.79,2.53 0.75,2.47 1.5,5.36 1.21,4.66 5.02,4.23 8.58,6.21 -1.35,2.83 -2.51,5.75 -4.83,7.57 -0.54,3.88 -7.25,15.15 -9.57,19.34 -4.47,8.08 -4.46,9.72 -14.06,13.43 1.92,2.07 4.24,2.56 7.51,2.97l3.36 -5.29 3.61 4.52c2.25,1.12 4.37,2.76 6.86,3.85 3.04,1.34 5.5,1.16 8.08,2.41 -0.71,2.03 -5.55,12.83 -6.66,14.19 -9.1,11.22 -27.21,-9.48 -41.26,-11.81 -3.99,2.44 -8.4,5.78 -12.87,7.03 -5.05,4.81 -35.75,20.97 -44.12,25.85 -23.92,13.95 -17.96,14.17 -46.89,-3.18 -13.52,-8.11 -10.02,-8.19 -25.49,-4.75 -27.47,6.13 -61.75,12.3 -89.23,15.47l6.41 168.3 405.89 -27.77 53.41 -292.43 -129.85 52.52c-2.77,-6.28 -0.74,-7.79 -7.33,-13.26 -4.62,-3.83 -10.94,-4.58 -16.76,-3.7z"/>
      <path class="fil1" d="M87.07 146.33c1.08,-2.06 2.44,-2.58 4.91,-2.59l-4.91 2.59zm19.43 -5.89l-0.38 -10.6 40.38 -22.61 0.29 3.56 2.49 33.02c-4.17,2.6 -37.68,21.74 -39.84,22.07l-1.89 -19.33c-0.54,-4.14 -1.07,-2.27 -1.06,-6.12zm-23.9 4.39c0.81,-1.45 -0.11,-0.91 1.67,-1.94 2.67,-1.56 1.73,-0.53 3.06,-0.72 -1.83,2.01 -1.83,2.09 -4.73,2.67zm7.71 -5.3c1.65,-1.02 0.98,-0.28 1.85,-0.52 -1.12,2.43 -1.12,1.93 -3.61,2.39 0.92,-1.57 -0.1,-0.72 1.76,-1.87zm-4.77 -0.22c1.05,-2.17 5,-3.9 7.23,-4.46 -0.97,2.33 -4.67,4.02 -7.23,4.46zm16.78 -6.18c-0.66,2.45 -6.01,5.43 -9.22,4.97l9.22 -4.97zm-17.12 2.43c1.14,-1.81 -1.24,-0.26 1.74,-2.04 1.99,-1.19 1.78,-0.49 2.88,-0.62 -1.51,1.97 -1.63,2.02 -4.62,2.67zm6.03 -3.42c0.01,-2.19 1.39,-1.88 3.65,-1.66l-3.65 1.66zm-7.65 0.6c1.05,-2.34 1.53,-2.3 4.17,-2.24l-4.17 2.24zm12.06 -3.37c2.02,-2.48 3.19,-3.09 6.04,-3.32 -1.42,2.25 -3.39,3.09 -6.04,3.32zm-14.29 0.45c1.21,-2.36 12.23,-7.93 14.7,-8.57 -0.71,2.24 -11.96,8.19 -14.7,8.57zm4.09 -5.83c0.36,-1.06 -0.86,-0.09 1.2,-1.81 1.98,-1.65 3.18,-1.97 5.32,-1.77l-6.53 3.58zm12.76 -3.32c0.27,-2.25 0.93,-2.11 3.49,-1.91l-3.49 1.91zm7.07 -3.92c-1.45,-2.25 -0.72,-6.88 -0.69,-9.62 6.21,-3.75 35.42,-21.46 40.18,-22.36l0.99 6.85 0.7 12.95c-2.52,2.39 -36.92,21.9 -40.41,23.01l-0.77 -10.82zm-33.94 74.56l41.01 -22.97c6.71,-3.86 13.46,-8 20.17,-11.61 6.39,-3.44 14.05,-7.28 19.87,-11.16l-5.22 -66.03c-5.99,2.14 -14.55,8.06 -20.6,11.28 -6.53,3.48 -13.86,7.57 -20.14,11.55 -7.79,4.94 -35.71,19.01 -39.99,23.6l4.91 65.36z"/>
      <path class="fil2" d="M163.45 90.61c1.13,-2.52 2.77,-2.82 5.38,-3.19 -1.04,2.5 -2.44,3.24 -5.38,3.19zm-0.03 -3.25c1.23,-2.78 3.94,-3.78 6.98,-4.27 -1.14,2.2 -4.38,3.75 -6.98,4.27zm33.56 -3.47l1.7 0.07c0.19,-5.2 -0.5,-2.53 2.89,-4.61l0.61 -4.44c4.1,0.43 4.38,3.6 4.42,7.47l1.13 1.06c-3.16,2.38 -8.41,6.53 -12.22,6.28 -0.71,-4.11 -2.17,-12.85 0.05,-16.07l1.43 10.25zm16.45 -4.29c-0.87,-4.29 -2.51,-13.05 -0.28,-16.28 1.95,3.65 1.23,9.69 1.6,14.06 2.83,-0.33 6.22,-4.18 10.82,-4.72 -1.97,2.72 -8.35,6.61 -12.14,6.94zm9.75 -26.15c0.63,-2.4 4.84,-4.35 7.1,-4.4 -0.88,2.14 -4.67,4.21 -7.1,4.4zm-63.76 28.93l-1.07 -0.18c1.01,6.07 2.4,33.06 3.49,35.31l-0.23 -4.61 9.59 -0.18c-5.1,-5.41 -3.3,-15.89 0.01,-21.9 1.57,-2.85 3.87,-5.73 6.32,-7.49 4.5,-3.23 6.47,-1.07 10.68,-1.08 1.25,-3.62 1.34,-6.25 3.59,-8.9 -0.18,3.6 -0.97,4.46 -2.02,7.8 -1.7,5.43 -0.42,2.46 1.29,6.96 1.98,5.23 0.7,11.36 -1.53,16.15 4.9,0.6 8.01,4 12.56,0.21 3.3,-2.75 4.59,-5.19 6.94,-8.49 4.24,-5.96 9.79,-13.48 17.14,-14.97l-0.71 -3.24c2.12,-2.26 1.17,-2.03 3.97,-2.07l1 2.56 7.07 -0.23c-0.38,-5.28 0.37,-14.94 -2.31,-18.86l0.03 8.98c-1.71,-2.88 -1.5,-6.44 -1.83,-9.82 -0.59,-6 -1.66,-7.79 0.58,-10.66 0.78,3.29 0.4,7.93 1.85,10.74l-1.18 -16.3 -72.59 41.33c-2.91,0.34 -0.95,1.76 -2.63,-1.07z"/>
      <path class="fil3" d="M141.75 202.2c4.36,2.29 18.52,8.89 22.66,9.67 3.61,-2.91 0.63,-2.54 5.19,-3.28 -3.86,-0.94 -4.85,0.68 -7.65,-2.15 2.12,-5.4 3.13,-0.49 7.45,-3.04l-8.3 -0.28c-0.27,-4.6 -0.12,-2.9 3.24,-4.24 -2.44,-1.46 -2.56,-0.63 -3.02,-3.19 2.46,-3.1 -0.85,-0.36 3.63,-1.47l1.97 -0.51c3.16,-1.01 3.15,-1.28 6.95,-1.3l3.29 3.95c2.03,-3.49 -0.63,-2.67 2.52,-5.48 4.87,2.04 0.24,2.71 3.89,6.84l32.45 -24.35c-2.15,-2.4 -7.21,-4.04 -10.52,-5.45 -15.58,-6.63 -8.99,-7.53 -28.62,7.38 -6.49,4.93 -31.33,22.9 -35.15,26.89z"/>
      <path class="fil4" d="M86.65 194.13c-1.81,-2.84 -2.4,-1.85 -4.37,-3.84l-1.85 -1.59 -10.69 5.9 -3.67 -1.74 -1.73 -20.69c-4.1,0.79 -19.49,10.31 -24.39,13.07 -3.71,2.09 -22.06,11.76 -23.1,14.39l28.53 7.26c16.32,3.47 8.8,5.6 26.02,-3.99 2.94,-1.64 13.46,-7.12 15.26,-8.77z"/>
      <path class="fil5" d="M144.48 135.37l2.41 1.06 -12.66 6.5c1.89,-3.98 7.63,-3.97 10.25,-7.56zm0 0c-4.11,0.69 -2.55,2.06 -6.76,2.44 1.6,-2.49 5.87,-4.74 8.76,-4.82l-2 2.38zm-19.35 3.13c2.98,-2.99 16.78,-10.64 20.74,-11.91 -1.79,3.2 -6.69,4.9 -10.04,6.91 -3.11,1.86 -7.15,5.13 -10.7,5zm-18.63 1.94c-0.02,3.85 0.52,1.98 1.06,6.12l1.89 19.33c2.16,-0.33 35.67,-19.48 39.84,-22.07l-2.49 -33.02c-14.8,8.43 -24.22,22.99 -38.54,31.71l-1.76 -2.06z"/>
      <path class="fil3" d="M166.97 125.91c-2.12,-3.78 -0.8,-6.09 3.27,-5.77 1.55,3.59 0.61,5.7 -3.27,5.77zm43.15 -23.51c0.74,-2.94 7.03,-5.04 9.86,-6.67 3.44,-1.98 6.9,-4.53 10.55,-5.72 -1.54,3.18 -16.41,11.33 -20.41,12.4zm6.16 -6.86c0.53,-2.57 11.02,-8.23 13.8,-8.66 -0.7,2.51 -10.8,7.25 -13.8,8.66zm9.89 -14.52c-7.36,1.49 -12.91,9.01 -17.14,14.97 -2.35,3.3 -3.63,5.74 -6.94,8.49 -4.55,3.79 -7.66,0.39 -12.56,-0.21 -1.74,8.78 -15.37,17.29 -18.34,8.45l-9.59 0.18 0.23 4.61 1.19 17.56c1.21,-0.02 67.97,-36.62 75.59,-42.59l-1.12 -14.45 -7.07 0.23 -1.89 6.17c-2.04,-0.79 -2,-0.97 -2.37,-3.42z"/>
      <path class="fil1" d="M255.86 138.89c5.12,5.29 14.89,4.15 21.69,3.26l2.98 -0.81c2.21,-7.01 9.56,-20.72 4.63,-28.97 -2.96,-4.96 -8.19,-17.64 -16.3,-8.13 -3.85,2.11 -7.22,4.78 -9.77,8.18 -4.74,6.34 -3.37,5.93 -1.56,12.33 1.49,5.29 0.59,9.4 -1.67,14.14z"/>
      <path class="fil1" d="M158.34 82.21l0.63 -6.88c6,-2.19 13.16,-6.93 18.58,-10.02 3.19,-1.82 6.2,-3.52 9.32,-5.24 3.13,-1.72 5.4,-3.34 9.3,-5.25 7.18,-3.52 31.72,-19.51 37.83,-21 0.52,3.01 0.54,5.12 1.09,7.22l-0.46 1.09 1.18 16.3 -0.63 0.76c2.69,3.92 1.93,13.58 2.31,18.86l1.12 14.45c-7.62,5.96 -74.38,42.57 -75.59,42.59l-1.19 -17.56c-1.09,-2.25 -2.48,-29.24 -3.49,-35.31zm-2.04 -8.8c-0.87,5.82 3.22,62.76 5.04,66.89l79.89 -45.55 -4.71 -66.09c-4.56,1.34 -33.15,18.36 -40,22.2 -8.69,4.87 -33.27,19.54 -40.23,22.55z"/>
      <path class="fil6" d="M169.63 208.65l1.3 1.25c3.53,0.92 5.66,2.94 8.9,4.59 1.49,-1.21 -0.6,-0.4 1.9,-0.91 1.25,-0.25 1.96,-0.22 3.23,-0.1 1.81,0.17 3.86,0.81 5.59,1.32 8.27,2.46 26.92,11.36 31.03,6.82 2.23,-5.65 -0.52,-5.62 -1.32,-11.06l-3.62 -4.54 -3.37 5.31c-3.28,-0.41 -5.61,-0.9 -7.54,-2.98 -3.83,0.89 -8.45,-1.33 -12.32,-2.49 -4.79,-1.43 -9.06,-0.8 -8.73,-6.2 -1.67,-0.77 -1.32,0.7 -1.03,-1.92 -3.67,-4.15 0.98,-4.82 -3.91,-6.86 -3.16,2.82 -0.49,1.99 -2.53,5.49l-3.31 -3.96c-3.81,0.02 -3.8,0.3 -6.97,1.31l-1.98 0.51c-4.5,1.1 -1.17,-1.64 -3.64,1.47 0.46,2.57 0.58,1.74 3.03,3.2 -3.38,1.35 -3.53,-0.36 -3.25,4.26l8.32 0.28c-4.33,2.55 -5.35,-2.37 -7.47,3.05 2.8,2.84 3.8,1.21 7.67,2.15z"/>
      <path class="fil7" d="M156.3 73.41c6.96,-3.01 31.55,-17.68 40.23,-22.55 6.85,-3.84 35.44,-20.86 40,-22.2l4.71 66.09 -79.89 45.55c-1.82,-4.13 -5.92,-61.07 -5.04,-66.89zm1.76 69.66c2.75,0.96 8.7,-3.29 11.45,-5.3l2.56 1.75c-1.21,-3.99 -1.64,-2.16 6.19,-6.63 6.7,-3.83 22.39,-14.47 27.15,-13.56 -0.49,-2.6 0.47,-2.41 3.37,-3.92 1.74,-0.91 3.24,-1.83 4.95,-2.78 3.53,-1.95 7.09,-3.96 10.63,-5.87l19.16 -10.89 -5.19 -69.96c-4.98,1.24 -16.74,8.35 -21.73,11.6 -6.22,4.05 -14.3,7.85 -20.9,11.72 -13.67,8.02 -27.38,15.57 -41.45,23.57 -0.73,3.16 2.65,52.53 3.98,62.67 0.48,3.65 2,6.09 -0.14,7.59z"/>
      <path class="fil7" d="M66.43 125.94c4.28,-4.59 32.2,-18.65 39.99,-23.6 6.28,-3.98 13.61,-8.06 20.14,-11.55 6.05,-3.23 14.61,-9.14 20.6,-11.28l5.22 66.03c-5.82,3.88 -13.48,7.72 -19.87,11.16 -6.71,3.62 -13.46,7.75 -20.17,11.61l-41.01 22.97 -4.91 -65.36zm3.3 68.66l10.69 -5.9 1.85 1.59 -0.21 -2.44c5.35,-3.28 10.87,-6.48 16.33,-9.46 5.06,-2.76 11.64,-8.46 17.14,-8.93 1.61,-2.41 15.28,-9.6 18.7,-11.21 2.54,-1.69 1.76,-1.62 4.63,-1.87 3.21,-4.45 10.93,-6.29 15.35,-9.91 0.11,-2.63 -0.13,-3.5 -0.32,-6 -0.03,-0.41 -0.14,-3.15 -0.09,-3.42 0.82,-4.28 -1.47,3.42 0.51,-1.53 2.09,-5.21 -3.37,2.73 0.89,-1.4 0.94,-3.23 0.59,-3.72 -1.11,-6.48l0.08 6.16c-2.13,-4.38 -4.37,-47.98 -5.15,-56.87 -1.77,0.28 -79.46,43.28 -84.41,47.27l5.11 70.4z"/>
      <path class="fil4" d="M64.33 172.17l1.73 20.69 3.67 1.74 -5.11 -70.4c4.95,-3.99 82.64,-46.99 84.41,-47.27 -3.53,-4.74 -6.67,-1.07 -10.97,1.35 -24.33,13.64 -54.36,32.23 -77.53,44.18l3.82 49.71z"/>
      <path class="fil4" d="M154.09 127.64c1.7,2.76 2.05,3.25 1.11,6.48 -0.59,3.79 -1.47,8.22 2.85,8.96 2.14,-1.5 0.61,-3.94 0.14,-7.59 -1.32,-10.14 -4.7,-59.51 -3.98,-62.67 14.08,-8 27.79,-15.55 41.45,-23.57 6.6,-3.88 14.68,-7.67 20.9,-11.72 4.99,-3.25 16.75,-10.36 21.73,-11.6 -3.36,-4.78 -7.14,-0.69 -11.15,1.54l-77.1 43.96 4.04 56.22z"/>
      <path class="fil8" d="M189.25 148.19c4.43,-1.31 30.03,-15.84 32.42,-18.86 -2.28,-3.25 -7.31,-3.98 -9.23,-6.92l-4.29 -1.56c-0.4,2.08 -12.93,8.87 -15.52,10.15 -2.79,1.39 -14.64,7.86 -16.19,9.46 2.03,1.56 4.41,2.54 6.76,4.21 5.62,4.01 4.68,0.81 6.05,3.51z"/>
      <path class="fil2" d="M107.7 123.45c-0.61,-4.64 -1.3,-5.77 2.97,-8.24 3.25,-1.88 4.74,-3.55 8.26,-3.81 0.28,4.88 1.42,6.01 -2.8,8.4 -3.2,1.81 -5.25,3.8 -8.42,3.65zm31.15 -23.23c4.02,-3.06 2.95,-1.35 4.65,-1.53l-0.57 5.22c-4.16,-0.72 -2.42,-0.8 -4.08,-3.69zm-13.16 1.27l-10.45 5.96c-3.39,4.53 -10.49,3.33 -9.96,9.3l0.77 10.82c3.49,-1.11 37.89,-20.62 40.41,-23.01l-0.7 -12.95c-6.89,1.71 -13.89,8.54 -20.06,9.87z"/>
      <path class="fil8" d="M123.16 186.16c2.99,-1.23 7.96,-3.17 9.1,-6.14 -1.87,-2.59 -5.73,-3.95 -8.43,-5.81l-4.21 -2.16 -32.58 19.1c12.32,10.31 13.21,6.2 17.12,4.08 4.19,-2.28 14.89,-9.78 19.01,-9.07z"/>
      <path class="fil9" d="M179.77 214.42c2.47,1.29 6.23,2.16 7.32,4.72 14.06,2.33 32.17,23.03 41.26,11.81 1.11,-1.36 5.95,-12.16 6.66,-14.19 -2.58,-1.25 -5.04,-1.08 -8.08,-2.41 -2.48,-1.09 -4.6,-2.73 -6.86,-3.85 0.8,5.43 3.54,5.4 1.32,11.03 -4.09,4.53 -22.69,-4.34 -30.93,-6.8 -1.73,-0.51 -3.77,-1.15 -5.57,-1.32 -1.26,-0.12 -1.98,-0.15 -3.22,0.1 -2.5,0.51 -0.41,-0.3 -1.9,0.91z"/>
      <path class="fil3" d="M246.7 122.4c6.37,0.06 6.54,8.21 4.11,12.65 -7.11,1.37 -7,-8.94 -4.11,-12.65zm-1.29 -0.77c-1.76,1.61 -1.56,4.22 -2.36,6.86 0.98,6.86 3.75,9.06 8.98,10.76l3.83 -0.37c2.25,-4.74 3.16,-8.85 1.67,-14.14 -1.8,-6.4 -3.17,-5.99 1.56,-12.33 2.54,-3.4 5.91,-6.07 9.77,-8.18 7.04,-3.85 7.11,-2.86 12.41,1.21 0.14,-6.64 -3.95,-9.75 -10.43,-8.39 -1.76,1.23 -4.39,1.34 -5.84,1.84 -3.31,1.14 -7.73,5.6 -9.7,8.1 -4.01,5.09 -5.52,10 -9.89,14.64z"/>
      <path class="fil3" d="M158.34 82.21l1.07 0.18c3.93,-0.36 12.04,-5.34 14.54,-8.29 -3.13,-0.32 -2.12,0.38 -4.03,-2.51 1.7,-1.4 3.2,-3.26 5.12,-2.24 2.64,-0.55 18.04,-9.34 19.59,-11.3 -2.33,-1.26 0.65,-1.79 2.76,-2.88 6.66,-3.44 12.25,-8.37 15.37,-5.95 0.24,4.23 -6.13,4.01 -9.34,8.47 8.44,-3.37 24.69,-15.48 31.65,-16.66 -0.55,-2.1 -0.57,-4.22 -1.09,-7.22 -6.11,1.5 -30.65,17.48 -37.83,21 -3.9,1.91 -6.17,3.53 -9.3,5.25 -3.12,1.72 -6.13,3.42 -9.32,5.24 -5.41,3.09 -12.58,7.83 -18.58,10.02l-0.63 6.88z"/>
      <path class="fil3" d="M106.5 140.44l1.76 2.06c14.32,-8.71 23.74,-23.27 38.54,-31.71l-0.29 -3.56 -40.38 22.61 0.38 10.6z"/>
      <path class="fil1" d="M242.43 114.88l2.98 6.75c4.37,-4.64 5.88,-9.55 9.89,-14.64 1.97,-2.5 6.39,-6.95 9.7,-8.1 1.45,-0.5 4.08,-0.62 5.84,-1.84 -8.23,0.22 -9.07,-4.68 -19.72,-1.11 -12.77,4.29 -9.69,13.88 -8.68,18.94z"/>
      <path class="fil10" d="M177.34 106.03c0.21,-0.97 -1.58,-0.58 2.71,-3.04 1.59,-0.92 2.27,-1.22 3.66,-1.54 -0.51,2.25 -4.07,3.79 -6.37,4.58zm-4.99 6.1c2.63,-2.63 12.2,-8.17 16.39,-9.03 2.21,-3.98 1.86,-9.67 1.15,-14.09 -2.2,0.52 -3.66,3.15 -5.11,5.02 -1.47,1.89 -3,4.16 -4.8,5.3 -2.03,-3.85 -1.19,-9.85 -2.19,-14.26 -6.87,4.45 -12.33,21.05 -5.44,27.07z"/>
      <path class="fil4" d="M138.86 156.37c1.68,1.51 7.35,2.93 9.54,2.41 1.39,-0.33 7.71,-4.11 9.38,-5.08 5.14,-2.99 13.43,-8.45 18.6,-10.29l-4.32 -3.88 -2.56 -1.75c-2.74,2 -8.69,6.26 -11.45,5.3 -4.32,-0.74 -3.44,-5.17 -2.85,-8.96 -4.26,4.13 1.2,-3.81 -0.89,1.4 -1.99,4.96 0.3,-2.75 -0.51,1.53 -0.05,0.26 0.05,3.01 0.09,3.42 0.2,2.5 0.44,3.37 0.32,6 -4.42,3.62 -12.14,5.46 -15.35,9.91z"/>
      <path class="fil11" d="M82.27 190.29c1.98,1.98 2.56,1 4.37,3.84 4.04,0.66 7.91,4.18 11.7,6.15l24.81 -14.12c-4.12,-0.72 -14.81,6.79 -19.01,9.07 -3.91,2.12 -4.8,6.23 -17.12,-4.08l32.58 -19.1 -4.08 -2.59c-5.5,0.47 -12.08,6.17 -17.14,8.93 -5.46,2.98 -10.98,6.18 -16.33,9.46l0.21 2.44z"/>
      <path class="fil4" d="M174.21 226.17c4.47,-1.25 8.88,-4.59 12.87,-7.03 -1.08,-2.56 -4.85,-3.43 -7.32,-4.72 -3.22,-1.65 -5.35,-3.66 -8.87,-4.58l-7.33 4.95 -14 -5.97 0.47 2.43c5.97,0.95 7.42,3.05 11.25,6.85 3.63,3.59 6.06,4.14 13.48,5.45l-0.56 2.62z"/>
      <path class="fil6" d="M227.03 147.91l1.21 1.67c-3.57,0.61 -2,-0.42 -4.11,1.56l0.08 2.42c3.86,0.46 13.01,2.2 10.43,7.6 -3.37,1.02 -2.68,-2.76 -6.33,0.18 0.16,3.56 3.99,4.31 7.22,4.65 9.76,-10.03 6.31,-5.46 12.92,-11.57 -4.84,-5.98 -13.69,-8.13 -20.58,-8.78l-0.83 2.26z"/>
      <path class="fil11" d="M172.06 139.52l4.32 3.88c3.8,0.61 7.56,3.98 10.99,5.86l1.88 -1.07c-1.37,-2.7 -0.43,0.5 -6.05,-3.51 -2.35,-1.68 -4.73,-2.65 -6.76,-4.21 1.55,-1.6 13.39,-8.07 16.19,-9.46 2.59,-1.29 15.12,-8.07 15.52,-10.15 -1.13,-2.08 -0.75,-1.21 -2.75,-1.52 -4.75,-0.91 -20.45,9.73 -27.15,13.56 -7.82,4.47 -7.4,2.64 -6.19,6.63z"/>
      <path class="fil1" d="M188.74 103.11c-2.14,6.01 -10.27,17.12 -16.39,9.03 -6.89,-6.01 -1.43,-22.62 5.44,-27.07 0.99,4.41 0.15,10.42 2.19,14.26 1.8,-1.14 3.33,-3.4 4.8,-5.3 1.45,-1.87 2.91,-4.5 5.11,-5.02 0.71,4.42 1.06,10.11 -1.15,14.09zm-3.35 -19.73c-0.72,3.5 -2.55,8.34 -4.7,10.85 -0.78,-3.29 -1.41,-8.08 -0.29,-11.06l4.99 0.21zm-14.19 29.34c2.96,8.84 16.59,0.33 18.34,-8.45 2.23,-4.79 3.52,-10.92 1.53,-16.15 -1.71,-4.5 -2.99,-1.54 -1.29,-6.96 1.04,-3.34 1.84,-4.2 2.02,-7.8 -2.24,2.66 -2.34,5.28 -3.59,8.9 -4.21,0 -6.18,-2.16 -10.68,1.08 -2.45,1.76 -4.75,4.64 -6.32,7.49 -3.32,6.01 -5.12,16.49 -0.01,21.9z"/>
      <path class="fil3" d="M105.28 116.74c-0.53,-5.97 6.57,-4.77 9.96,-9.3 -3.64,1.2 -1.36,0.67 -2.28,-0.61l-1.81 -0.32c3.79,-2.35 12.28,-5.94 14.44,-9.23 -1.3,-1.42 -0.93,-0.18 2.69,-2.13 5.33,-2.88 8.41,-6.53 11.93,-4.22 -0.51,4.84 -6.47,3.98 -14.51,10.56 6.17,-1.34 13.17,-8.16 20.06,-9.87l-0.99 -6.85c-4.76,0.91 -33.97,18.61 -40.18,22.36 -0.03,2.74 -0.75,7.36 0.69,9.62z"/>
      <path class="fil4" d="M115.53 169.46l4.08 2.59 4.21 2.16c2.61,-4.48 14.39,-8.71 19.06,-12.26l-8.66 -3.71c-3.42,1.62 -17.09,8.8 -18.7,11.21z"/>
      <path class="fil12" d="M194.64 58.06l1.98 1.16 -24.51 13.48c0.39,-1.6 -0.58,-0.35 1.12,-2.13 0.29,-0.31 1.33,-0.84 1.82,-1.2 -1.92,-1.02 -3.42,0.84 -5.12,2.24 1.9,2.89 0.9,2.19 4.03,2.51 2.7,-0.48 27.55,-14.59 29.48,-16.4 3.21,-4.45 9.57,-4.23 9.34,-8.47 -3.12,-2.42 -8.71,2.51 -15.37,5.95 -2.11,1.09 -5.09,1.62 -2.76,2.88z"/>
      <path class="fil4" d="M205.39 119.34c2,0.31 1.62,-0.56 2.75,1.52l4.29 1.56c1.91,-3.66 14.71,-7.23 17.62,-11.97 -2.52,-1.56 -1.73,-1.16 -4.81,-1.37l-0.9 -2.31c-3.54,1.91 -7.1,3.92 -10.63,5.87 -1.72,0.95 -3.21,1.88 -4.95,2.78 -2.9,1.51 -3.86,1.32 -3.37,3.92z"/>
      <path class="fil3" d="M116.17 216.49c3.58,-0.24 4.51,0.26 7.22,2.77 -2.91,2.48 -6.35,5.09 -10.11,5.46l10.77 7.22c0.81,-3.27 5.45,-5.59 8.63,-6.82l2.4 0.76 0.44 -1.04 -17.66 -9.98 -1.68 1.64z"/>
      <path class="fil10" d="M203.44 57.7c-1.93,1.81 -26.78,15.92 -29.48,16.4 -2.51,2.95 -10.62,7.93 -14.54,8.29 1.68,2.83 -0.28,1.41 2.63,1.07l72.59 -41.33 0.46 -1.09c-6.97,1.18 -23.22,13.29 -31.65,16.66z"/>
      <path class="fil6" d="M277.55 142.14c-3.66,2.86 -8.58,2.12 -13.61,2.58 -5.85,0.53 -6.51,3.97 -10.02,3.48l0.52 3.62c6.3,-1.12 23.23,-2.47 25.82,-8.61l0.27 -1.89 -2.98 0.81z"/>
      <path class="fil1" d="M135.98 224.59l-0.45 1.07 0.67 2c-2.21,1.13 -3.86,2.23 -5.69,3.4 -3.66,2.33 -2.46,1.37 -6.24,0.87l-11 -7.46 -4.07 -3.25 7.03 -5.25 1.72 -1.69c-3.04,-0.61 -9.89,3.81 -11.34,6.77 1.5,3.31 17.43,12.99 21.61,14.55 3.27,-0.67 8.81,-4.19 10.78,-6.8 -1.56,-4.36 -2.26,-1.63 -3.02,-4.21z"/>
      <path class="fil4" d="M229.23 175.52c2.32,-1.82 3.48,-4.74 4.83,-7.57 -3.55,-1.98 -7.37,-1.55 -8.58,-6.21 -0.75,-2.89 0.29,-2.83 -1.5,-5.36 -2.47,-3.48 -2.56,-0.16 -2.07,-6.32 -0.7,0.46 -3.32,0.76 -1.23,7.01 1.73,5.18 5,15.25 8.55,18.45z"/>
      <path class="fil1" d="M241.1 129.22c-0.66,7.7 3.12,19 12.46,18.03 -0.52,-4.23 -1.7,-3.19 -1.52,-8 -5.23,-1.71 -8,-3.91 -8.98,-10.76l-1.95 0.73z"/>
      <path class="fil12" d="M183.59 197.73c-0.29,2.61 -0.64,1.15 1.02,1.91 4.89,-3.36 29.3,-21.42 31.88,-24.85l-0.45 -1.41 -32.45 24.35z"/>
      <path class="fil1" d="M125.59 97.27l2.35 0.55 -14.98 9c0.92,1.28 -1.36,1.82 2.28,0.61l10.45 -5.96c8.04,-6.58 14.01,-5.72 14.51,-10.56 -3.52,-2.31 -6.59,1.34 -11.93,4.22 -3.62,1.95 -3.99,0.71 -2.69,2.13z"/>
      <path class="fil10" d="M107.7 123.45c3.17,0.15 5.23,-1.84 8.42,-3.65 4.22,-2.39 3.08,-3.53 2.8,-8.4 -3.52,0.26 -5.01,1.94 -8.26,3.81 -4.27,2.46 -3.58,3.6 -2.97,8.24z"/>
      <path class="fil13" d="M252.03 139.26c-0.18,4.87 1.01,3.82 1.52,8.11l0.36 0.97c3.52,0.49 4.17,-2.99 10.02,-3.53 5.03,-0.46 9.95,0.28 13.61,-2.62 -6.8,0.91 -16.57,2.06 -21.69,-3.3l-3.83 0.37z"/>
      <path class="fil11" d="M172.35 112.14c6.12,8.09 14.25,-3.02 16.39,-9.03 -4.19,0.86 -13.76,6.4 -16.39,9.03z"/>
      <path class="fil12" d="M149.56 208.82l14 5.97 7.33 -4.95 -1.3 -1.24c-4.56,0.74 -1.58,0.36 -5.19,3.28 -4.14,-0.78 -18.3,-7.38 -22.66,-9.67l-0.47 2.44 8.29 4.18z"/>
      <path class="fil2" d="M113.1 224.47c3.67,-0.37 7.03,-2.94 9.87,-5.4 -2.64,-2.48 -3.55,-2.97 -7.05,-2.73l-6.72 5.02 3.89 3.11z"/>
      <path class="fil1" d="M196.98 83.89l0.46 3.52 9.15 -5.04c-0.04,-3.88 -0.31,-7.04 -4.42,-7.47l-0.61 4.44c-3.39,2.09 -2.7,-0.58 -2.89,4.61l-1.7 -0.07z"/>
      <path class="fil10" d="M206.59 82.37l-9.15 5.04 -0.46 -3.52 -1.43 -10.25c-2.21,3.21 -0.76,11.95 -0.05,16.07 3.81,0.25 9.06,-3.89 12.22,-6.28l-1.13 -1.06z"/>
      <path class="fil10" d="M213.42 79.6c3.79,-0.33 10.17,-4.23 12.14,-6.94 -4.6,0.54 -7.99,4.39 -10.82,4.72 -0.37,-4.37 0.35,-10.41 -1.6,-14.06 -2.23,3.23 -0.59,11.99 0.28,16.28z"/>
      <path class="fil2" d="M124.28 231.93c3.78,0.5 2.58,1.45 6.24,-0.87 1.83,-1.16 3.48,-2.27 5.69,-3.4l-0.67 -2 -2.45 -0.78c-3.24,1.28 -7.98,3.67 -8.81,7.05z"/>
      <path class="fil0" d="M249.34 133.84c-3.81,-2.13 -3.61,-7.05 -1.39,-10.14 3.27,1.99 3.38,7.07 1.39,10.14zm-2.64 -11.45c-2.89,3.71 -3,14.02 4.11,12.65 2.43,-4.44 2.25,-12.59 -4.11,-12.65z"/>
      <path class="fil11" d="M180.4 83.17c-1.12,2.99 -0.49,7.77 0.29,11.06 2.15,-2.51 3.98,-7.35 4.7,-10.85l-4.99 -0.21z"/>
      <path class="fil1" d="M210.12 102.4c3.99,-1.07 18.87,-9.22 20.41,-12.4 -3.65,1.19 -7.11,3.74 -10.55,5.72 -2.83,1.63 -9.12,3.73 -9.86,6.67z"/>
      <path class="fil3" d="M125.13 138.5c3.55,0.12 7.59,-3.14 10.7,-5 3.36,-2.01 8.25,-3.7 10.04,-6.91 -3.96,1.27 -17.76,8.92 -20.74,11.91z"/>
      <path class="fil10" d="M175.05 69.35c-0.48,0.37 -1.52,0.9 -1.82,1.2 -1.7,1.78 -0.73,0.53 -1.12,2.13l24.51 -13.48 -1.98 -1.16c-1.55,1.95 -16.95,10.75 -19.59,11.3z"/>
      <path class="fil10" d="M235.18 59.18l0.63 -0.76c-1.45,-2.81 -1.07,-7.44 -1.85,-10.74 -2.24,2.87 -1.17,4.66 -0.58,10.66 0.33,3.38 0.12,6.94 1.83,9.82l-0.03 -8.98z"/>
      <path class="fil4" d="M249.34 133.84c1.99,-3.07 1.89,-8.15 -1.39,-10.14 -2.22,3.09 -2.42,8.01 1.39,10.14z"/>
      <path class="fil6" d="M241.1 129.22l1.95 -0.73c0.81,-2.64 0.6,-5.25 2.36,-6.86l-2.98 -6.75 -1.34 14.34z"/>
      <path class="fil3" d="M234.64 161.16c2.58,-5.39 -6.56,-7.13 -10.43,-7.6l0.81 2.18c8.99,2.62 4.34,1.79 9.62,5.42z"/>
      <path class="fil1" d="M226.17 81.03c0.37,2.45 0.33,2.64 2.37,3.42l1.89 -6.17 -1 -2.56c-2.8,0.04 -1.85,-0.19 -3.97,2.07l0.71 3.24z"/>
      <path class="fil3" d="M285.34 162.86l-1.22 5.92c-7.32,0.11 -5.17,-5.18 -4.19,-9.04 -3.76,1.89 -3.61,6.8 -0.12,9.55 4.13,3.25 8.32,-1.31 5.53,-6.43z"/>
      <path class="fil1" d="M216.28 95.55c3.01,-1.41 13.1,-6.15 13.8,-8.66 -2.79,0.44 -13.27,6.09 -13.8,8.66z"/>
      <path class="fil3" d="M81.37 129.81c2.74,-0.38 13.99,-6.33 14.7,-8.57 -2.47,0.64 -13.5,6.21 -14.7,8.57z"/>
      <path class="fil2" d="M167.88 124.85c-0.68,-3.1 -0.89,-1.15 0.84,-3.69 1.12,2.61 1.71,1.62 -0.84,3.69zm-0.91 1.07c3.89,-0.07 4.82,-2.18 3.27,-5.77 -4.07,-0.32 -5.39,1.98 -3.27,5.77z"/>
      <path class="fil10" d="M112.96 106.83l14.98 -9 -2.35 -0.55c-2.16,3.29 -10.65,6.88 -14.44,9.23l1.81 0.32z"/>
      <path class="fil10" d="M138.85 100.22c1.66,2.89 -0.08,2.97 4.08,3.69l0.57 -5.22c-1.69,0.18 -0.63,-1.53 -4.65,1.53z"/>
      <path class="fil3" d="M144.48 135.37c-2.62,3.6 -8.35,3.59 -10.25,7.56l12.66 -6.5 -2.41 -1.06z"/>
      <path class="fil3" d="M144.48 135.37l2 -2.38c-2.9,0.08 -7.17,2.33 -8.76,4.82 4.22,-0.38 2.65,-1.75 6.76,-2.44z"/>
      <path class="fil10" d="M223.17 53.46c2.43,-0.19 6.22,-2.26 7.1,-4.4 -2.27,0.05 -6.48,2 -7.1,4.4z"/>
      <path class="fil3" d="M93.11 138.09c3.2,0.46 8.55,-2.52 9.22,-4.97l-9.22 4.97z"/>
      <path class="fil10" d="M163.41 87.36c2.61,-0.52 5.85,-2.06 6.98,-4.27 -3.05,0.49 -5.76,1.49 -6.98,4.27z"/>
      <path class="fil3" d="M177.34 106.03c2.29,-0.79 5.86,-2.32 6.37,-4.58 -1.39,0.32 -2.06,0.62 -3.66,1.54 -4.29,2.46 -2.5,2.07 -2.71,3.04z"/>
      <path class="fil3" d="M85.54 139.3c2.56,-0.43 6.26,-2.13 7.23,-4.46 -2.22,0.56 -6.18,2.28 -7.23,4.46z"/>
      <path class="fil10" d="M163.45 90.61c2.93,0.06 4.34,-0.69 5.38,-3.19 -2.61,0.36 -4.25,0.66 -5.38,3.19z"/>
      <path class="fil3" d="M95.65 129.36c2.65,-0.23 4.62,-1.08 6.04,-3.32 -2.85,0.23 -4.02,0.85 -6.04,3.32z"/>
      <path class="fil3" d="M85.45 123.98l6.53 -3.58c-2.15,-0.19 -3.34,0.12 -5.32,1.77 -2.07,1.72 -0.84,0.75 -1.2,1.81z"/>
      <path class="fil3" d="M85.21 135.55c2.99,-0.65 3.11,-0.7 4.62,-2.67 -1.1,0.13 -0.88,-0.57 -2.88,0.62 -2.99,1.79 -0.61,0.24 -1.74,2.04z"/>
      <path class="fil3" d="M82.6 144.83c2.9,-0.58 2.91,-0.66 4.73,-2.67 -1.33,0.19 -0.39,-0.84 -3.06,0.72 -1.77,1.03 -0.86,0.49 -1.67,1.94z"/>
      <path class="fil10" d="M167.88 124.85c2.55,-2.07 1.96,-1.08 0.84,-3.69 -1.74,2.53 -1.52,0.59 -0.84,3.69z"/>
      <path class="fil3" d="M88.55 141.4c2.49,-0.47 2.48,0.04 3.61,-2.39 -0.88,0.24 -0.21,-0.5 -1.85,0.52 -1.86,1.15 -0.84,0.3 -1.76,1.87z"/>
      <path class="fil3" d="M87.07 146.33l4.91 -2.59c-2.47,0.01 -3.83,0.54 -4.91,2.59z"/>
      <path class="fil3" d="M83.59 132.73l4.17 -2.24c-2.64,-0.06 -3.12,-0.1 -4.17,2.24z"/>
      <path class="fil3" d="M91.24 132.12l3.65 -1.66c-2.27,-0.22 -3.64,-0.53 -3.65,1.66z"/>
      <path class="fil3" d="M98.21 120.66l3.49 -1.91c-2.56,-0.2 -3.22,-0.34 -3.49,1.91z"/>
     </g>
     <rect class="fil1" transform="matrix(0.678436 -0.500888 0.501069 0.678191 142.911 192.477)" width="10.82" height="0.52"/>
     <rect class="fil1" transform="matrix(0.678436 -0.500888 0.501069 0.678191 143.794 193.121)" width="10.82" height="0.52"/>
     <rect class="fil1" transform="matrix(0.678436 -0.500888 0.501069 0.678191 144.925 193.964)" width="10.82" height="0.52"/>
     <rect class="fil1" transform="matrix(0.678436 -0.500888 0.501069 0.678191 147.761 196.287)" width="10.82" height="0.52"/>
    </g>
   </g>
  </g>
  <path class="fil14" d="M182.48 0c100.78,0 182.48,81.7 182.48,182.48 0,100.78 -81.7,182.48 -182.48,182.48 -100.78,0 -182.48,-81.7 -182.48,-182.48 0,-100.78 81.7,-182.48 182.48,-182.48z"/>
 </g>
</svg>
