<?xml version="1.0" encoding="UTF-8"?>
<!DOCTYPE svg PUBLIC "-//W3C//DTD SVG 1.1//EN" "http://www.w3.org/Graphics/SVG/1.1/DTD/svg11.dtd">
<!-- Creator: CorelDRAW 2021 (64-Bit) -->
<svg xmlns="http://www.w3.org/2000/svg" xml:space="preserve" width="2.41546in" height="1.60157in" version="1.1" style="shape-rendering:geometricPrecision; text-rendering:geometricPrecision; image-rendering:optimizeQuality; fill-rule:evenodd; clip-rule:evenodd"
viewBox="0 0 1707.45 1132.13"
 xmlns:xlink="http://www.w3.org/1999/xlink"
 xmlns:xodm="http://www.corel.com/coreldraw/odm/2003">
 <defs>
  <style type="text/css">
   <![CDATA[
    .fil7 {fill:#727376}
    .fil6 {fill:#5D5E60}
    .fil10 {fill:#4B4B4D}
    .fil4 {fill:#373435}
    .fil12 {fill:#996551}
    .fil8 {fill:#9B6450}
    .fil5 {fill:#A45E4D}
    .fil11 {fill:#001216}
    .fil1 {fill:#00CF79}
    .fil0 {fill:#101010}
    .fil2 {fill:#1BF79B}
    .fil13 {fill:#1D1F20}
    .fil3 {fill:#96979E}
    .fil9 {fill:#AAFAD9}
   ]]>
  </style>
 </defs>
 <g id="Layer_x0020_1">
  <metadata id="CorelCorpID_0Corel-Layer"/>
  <g id="_3088312565104">
   <path class="fil0" d="M1312.15 577.55c11.52,21.25 -5.82,40.21 -22.91,26.71 -14.45,-11.42 -15.05,-31.77 0.51,-39.63 -4.06,16.03 -12.97,37.97 17.34,37.51l5.06 -24.58zm-21.01 -81.49c-10.71,25.47 -80.83,31.08 -106.93,35.72l-24.82 10.81c-27.35,25.34 -13.06,6.38 -53.49,48.02 -13.37,-1.43 -29.26,-4.53 -29.91,-19.32 15.12,-12.2 12.28,3.49 26.23,-0.76 -21.87,-15.04 -2.6,-11.59 -39.84,-22.48l-3.34 -9.04 -0.33 -10.06c8.72,-8.21 2.23,-3.94 17.02,-6.48l-5.02 -6.94 -21.2 8.92c-2.06,25.56 -1.67,11.79 8.55,26.25 7.41,10.49 3.11,10.26 6.21,22.24 5.02,19.33 20.81,17.57 35.52,25.78 -5.57,11.76 -10.38,23.87 -19.99,31.41 -2.23,16.12 -30.04,62.89 -39.64,80.28 -18.52,33.55 -18.45,40.33 -58.25,55.75 7.95,8.58 17.58,10.63 31.11,12.31l13.89 -21.96 14.95 18.78c9.33,4.63 18.11,11.44 28.39,15.97 12.59,5.54 22.78,4.83 33.46,10.01 -2.93,8.44 -22.98,53.25 -27.56,58.91 -37.67,46.56 -112.68,-39.35 -170.89,-49.02 -16.51,10.12 -34.79,23.98 -53.3,29.19 -20.9,19.97 -148.05,87.05 -182.69,107.28 -99.07,57.89 -74.38,58.79 -194.19,-13.21 -56,-33.65 -41.48,-34.01 -105.55,-19.7 -113.77,25.42 -255.7,51.04 -369.52,64.22l0 153.2 1707.45 0 0 -690.56 -316.57 124.87c-11.48,-26.08 -3.06,-32.35 -30.35,-55.01 -19.12,-15.88 -45.32,-19 -69.39,-15.37z"/>
   <path class="fil0" d="M491.07 508.95c4.49,-8.55 10.11,-10.71 20.35,-10.77l-20.35 10.77zm80.46 -24.45l-1.56 -43.99 167.23 -93.83 1.2 14.77 10.31 137.05c-17.27,10.77 -156.03,90.23 -164.99,91.61l-7.81 -80.23c-2.24,-17.18 -4.44,-9.43 -4.37,-25.4zm-98.96 18.22c3.34,-6.03 -0.44,-3.78 6.91,-8.07 11.07,-6.47 7.18,-2.19 12.69,-2.99 -7.56,8.34 -7.59,8.66 -19.6,11.06zm31.94 -22.02c6.81,-4.24 4.04,-1.14 7.67,-2.15 -4.65,10.07 -4.64,7.99 -14.94,9.93 3.79,-6.53 -0.43,-2.99 7.27,-7.78zm-19.75 -0.93c4.35,-9.01 20.73,-16.18 29.93,-18.49 -4,9.66 -19.32,16.7 -29.93,18.49zm69.51 -25.66c-2.75,10.16 -24.9,22.53 -38.17,20.63l38.17 -20.63zm-70.88 10.1c4.71,-7.5 -5.15,-1.07 7.22,-8.49 8.26,-4.95 7.36,-2.04 11.91,-2.58 -6.25,8.17 -6.73,8.37 -19.13,11.07zm24.96 -14.21c0.04,-9.1 5.75,-7.81 15.13,-6.89l-15.13 6.89zm-31.66 2.5c4.34,-9.73 6.33,-9.55 17.26,-9.3l-17.26 9.3zm49.96 -13.97c8.36,-10.28 13.22,-12.82 25.01,-13.79 -5.89,9.32 -14.05,12.82 -25.01,13.79zm-59.17 1.85c4.99,-9.79 50.64,-32.9 60.88,-35.57 -2.94,9.3 -49.53,33.99 -60.88,35.57zm16.92 -24.18c1.49,-4.39 -3.57,-0.36 4.99,-7.51 8.2,-6.86 13.16,-8.15 22.05,-7.36l-27.04 14.87zm52.84 -13.79c1.13,-9.34 3.85,-8.76 14.47,-7.92l-14.47 7.92zm29.27 -16.26c-5.99,-9.35 -3,-28.55 -2.87,-39.91 25.73,-15.58 146.69,-89.06 166.4,-92.82l4.1 28.43 2.9 53.73c-10.42,9.94 -152.9,90.89 -167.34,95.49l-3.18 -44.92zm-140.55 309.43l169.81 -95.33c27.8,-16.02 55.75,-33.19 83.55,-48.2 26.46,-14.28 58.16,-30.22 82.28,-46.34l-21.63 -274.06c-24.79,8.89 -60.27,33.44 -85.3,46.83 -27.04,14.46 -57.42,31.4 -83.41,47.93 -32.27,20.52 -147.89,78.88 -165.62,97.93l20.32 271.24z"/>
   <path class="fil1" d="M807.37 277.71c4.69,-10.46 11.47,-11.72 22.27,-13.22 -4.3,10.37 -10.12,13.47 -22.27,13.22zm-0.13 -13.49c5.09,-11.53 16.31,-15.69 28.92,-17.71 -4.71,9.15 -18.13,15.56 -28.92,17.71zm138.98 -14.39l7.02 0.28c0.8,-21.58 -2.08,-10.49 11.98,-19.15l2.52 -18.43c16.99,1.78 18.13,14.93 18.29,31.01l4.68 4.39c-13.07,9.89 -34.82,27.11 -50.6,26.05 -2.95,-17.06 -8.96,-53.34 0.19,-66.68l5.93 42.53zm68.11 -17.79c-3.6,-17.81 -10.39,-54.16 -1.17,-67.58 8.07,15.15 5.11,40.23 6.64,58.37 11.71,-1.37 25.75,-17.36 44.8,-19.61 -8.16,11.27 -34.59,27.43 -50.27,28.82zm40.37 -108.51c2.59,-9.98 20.03,-18.05 29.41,-18.28 -3.65,8.89 -19.34,17.49 -29.41,18.28zm-264.04 120.08l-4.44 -0.75c4.19,25.19 9.94,137.19 14.47,146.53l-0.94 -19.14 39.72 -0.75c-21.13,-22.46 -13.68,-65.94 0.06,-90.88 6.52,-11.84 16.02,-23.77 26.17,-31.08 18.63,-13.41 26.78,-4.45 44.23,-4.46 5.18,-15.04 5.56,-25.92 14.85,-36.96 -0.74,14.94 -4.04,18.49 -8.36,32.36 -7.02,22.52 -1.73,10.21 5.35,28.9 8.22,21.72 2.89,47.16 -6.36,67.04 20.27,2.49 33.17,16.61 52.01,0.88 13.68,-11.41 19.01,-21.55 28.72,-35.24 17.54,-24.74 40.53,-55.92 71,-62.12l-2.96 -13.44c8.77,-9.38 4.85,-8.41 16.44,-8.59l4.13 10.63 29.29 -0.96c-1.58,-21.93 1.54,-62.01 -9.58,-78.29l0.14 37.28c-7.08,-11.96 -6.21,-26.71 -7.59,-40.75 -2.46,-24.9 -6.89,-32.34 2.39,-44.24 3.23,13.66 1.66,32.9 7.68,44.55l-4.89 -67.64 -300.63 171.54c-12.04,1.41 -3.92,7.31 -10.88,-4.42z"/>
   <path class="fil2" d="M717.53 740.84c18.07,9.52 76.71,36.91 93.84,40.13 14.95,-12.08 2.61,-10.53 21.5,-13.59 -15.99,-3.88 -20.1,2.84 -31.68,-8.9 8.76,-22.39 12.94,-2.04 30.84,-12.6l-34.36 -1.16c-1.14,-19.09 -0.52,-12.03 13.44,-17.61 -10.12,-6.05 -10.59,-2.63 -12.5,-13.25 10.18,-12.86 -3.54,-1.52 15.03,-6.08l8.17 -2.13c13.08,-4.18 13.05,-5.32 28.77,-5.42l13.64 16.38c8.4,-14.51 -2.6,-11.06 10.44,-22.73 20.18,8.47 0.98,11.24 16.13,28.4l134.39 -101.06c-8.91,-9.97 -29.86,-16.77 -43.55,-22.61 -64.5,-27.54 -37.24,-31.26 -118.51,30.63 -26.86,20.46 -129.77,95.03 -145.58,111.6z"/>
   <path class="fil3" d="M489.32 707.34c-7.5,-11.79 -9.92,-7.7 -18.11,-15.92l-7.66 -6.62 -44.27 24.5 -15.2 -7.24 -7.15 -85.85c-16.96,3.28 -80.73,42.81 -101.02,54.25 -15.36,8.66 -91.35,48.83 -95.68,59.71l118.16 30.12c67.6,14.41 36.46,23.24 107.75,-16.56 12.19,-6.81 55.74,-29.54 63.19,-36.38z"/>
   <path class="fil4" d="M728.84 463.47l9.98 4.41 -52.42 26.98c7.85,-16.5 31.6,-16.46 42.44,-31.39zm0 0c-17.03,2.86 -10.54,8.56 -28,10.13 6.61,-10.34 24.31,-19.66 36.3,-20.01l-8.3 9.88zm-80.15 12.99c12.35,-12.4 69.49,-44.16 85.9,-49.43 -7.41,13.3 -27.69,20.34 -41.59,28.68 -12.88,7.72 -29.61,21.28 -44.31,20.76zm-77.17 8.05c-0.07,15.97 2.13,8.22 4.37,25.4l7.81 80.23c8.95,-1.38 147.71,-80.84 164.99,-91.61l-10.31 -137.05c-61.3,34.99 -100.3,95.43 -159.59,131.59l-7.27 -8.54z"/>
   <path class="fil2" d="M821.96 424.23c-8.77,-15.7 -3.31,-25.26 13.56,-23.94 6.4,14.89 2.54,23.65 -13.56,23.94zm178.69 -97.57c3.04,-12.2 29.11,-20.94 40.82,-27.69 14.24,-8.22 28.59,-18.8 43.7,-23.75 -6.38,13.19 -67.98,47 -84.51,51.45zm25.52 -28.46c2.2,-10.67 45.63,-34.14 57.17,-35.96 -2.91,10.43 -44.71,30.1 -57.17,35.96zm40.96 -60.26c-30.47,6.19 -53.46,37.38 -71,62.12 -9.71,13.7 -15.04,23.83 -28.72,35.24 -18.84,15.73 -31.74,1.61 -52.01,-0.88 -7.22,36.43 -63.66,71.78 -75.93,35.07l-39.72 0.75 0.94 19.14 4.94 72.9c5.01,-0.08 281.46,-152 313.03,-176.75l-4.63 -59.95 -29.29 0.96 -7.82 25.61c-8.45,-3.27 -8.27,-4.04 -9.8,-14.21z"/>
   <path class="fil0" d="M1190.08 478.07c21.22,21.94 61.68,17.23 89.84,13.52l12.32 -3.38c9.14,-29.09 39.59,-85.99 19.18,-120.22 -12.27,-20.57 -33.92,-73.22 -67.52,-33.74 -15.95,8.74 -29.91,19.83 -40.44,33.95 -19.61,26.29 -13.95,24.6 -6.48,51.17 6.18,21.97 2.43,39.03 -6.9,58.7z"/>
   <path class="fil0" d="M786.23 242.85l2.6 -28.55c24.84,-9.07 54.52,-28.75 76.94,-41.56 13.23,-7.56 25.68,-14.62 38.61,-21.75 12.98,-7.15 22.36,-13.86 38.53,-21.8 29.75,-14.62 131.37,-80.97 156.67,-87.17 2.15,12.48 2.23,21.26 4.52,29.98l-1.9 4.51 4.89 67.64 -2.61 3.16c11.13,16.28 8,56.36 9.58,78.29l4.63 59.95c-31.56,24.75 -308.02,176.66 -313.03,176.75l-4.94 -72.9c-4.53,-9.34 -10.28,-121.34 -14.47,-146.53zm-8.46 -36.52c-3.6,24.16 13.34,260.49 20.89,277.63l330.87 -189.04 -19.5 -274.3c-18.88,5.57 -137.29,76.19 -165.64,92.13 -35.97,20.22 -137.79,81.09 -166.62,93.58z"/>
   <path class="fil5" d="M832.98 767.6l5.38 5.18c14.62,3.84 23.45,12.21 36.84,19.07 6.17,-5.03 -2.5,-1.66 7.88,-3.78 5.16,-1.05 8.12,-0.9 13.37,-0.42 7.5,0.69 15.97,3.35 23.15,5.49 34.23,10.2 111.5,47.14 128.49,28.29 9.25,-23.44 -2.15,-23.32 -5.47,-45.9l-15 -18.84 -13.94 22.03c-13.57,-1.69 -23.24,-3.74 -31.21,-12.35 -15.88,3.7 -34.97,-5.52 -51.02,-10.32 -19.86,-5.94 -37.51,-3.32 -36.15,-25.74 -6.9,-3.18 -5.47,2.92 -4.25,-7.95 -15.2,-17.22 4.06,-19.99 -16.18,-28.49 -13.07,11.71 -2.04,8.25 -10.47,22.8l-13.68 -16.43c-15.77,0.1 -15.74,1.24 -28.86,5.43l-8.19 2.13c-18.62,4.58 -4.86,-6.79 -15.07,6.1 1.92,10.66 2.39,7.22 12.54,13.29 -14,5.6 -14.62,-1.49 -13.48,17.66l34.46 1.16c-17.94,10.59 -22.14,-9.82 -30.93,12.64 11.61,11.77 15.74,5.04 31.77,8.93z"/>
   <path class="fil6" d="M777.77 206.33c28.83,-12.49 130.65,-73.36 166.62,-93.58 28.35,-15.94 146.76,-86.57 165.64,-92.13l19.5 274.3 -330.87 189.04c-7.55,-17.14 -24.5,-253.47 -20.89,-277.63zm7.27 289.1c11.4,4 36.05,-13.67 47.41,-21.99l10.59 7.28c-5.03,-16.56 -6.78,-8.95 25.62,-27.51 27.75,-15.89 92.74,-60.05 112.43,-56.27 -2.02,-10.79 1.95,-10.01 13.95,-16.27 7.21,-3.76 13.4,-7.61 20.51,-11.55 14.6,-8.09 29.35,-16.45 44.01,-24.37l79.33 -45.18 -21.51 -290.34c-20.62,5.13 -69.32,34.65 -90,48.14 -25.77,16.81 -59.21,32.57 -86.55,48.66 -56.6,33.3 -113.38,64.63 -171.68,97.83 -3.01,13.1 10.98,218.02 16.46,260.09 1.97,15.15 8.29,25.28 -0.57,31.49z"/>
   <path class="fil6" d="M405.61 424.36c17.74,-19.05 133.35,-77.41 165.62,-97.93 26,-16.52 56.38,-33.47 83.41,-47.93 25.04,-13.39 60.52,-37.94 85.3,-46.83l21.63 274.06c-24.12,16.12 -55.82,32.06 -82.28,46.34 -27.8,15.01 -55.75,32.18 -83.55,48.2l-169.81 95.33 -20.32 -271.24zm13.66 284.94l44.27 -24.5 7.66 6.62 -0.87 -10.14c22.16,-13.62 45.01,-26.9 67.63,-39.26 20.94,-11.44 48.22,-35.1 70.98,-37.06 6.66,-10.01 63.29,-39.83 77.43,-46.54 10.51,-7.03 7.3,-6.73 19.18,-7.77 13.29,-18.46 45.25,-26.1 63.56,-41.13 0.48,-10.9 -0.52,-14.52 -1.34,-24.89 -0.14,-1.71 -0.57,-13.1 -0.36,-14.19 3.38,-17.78 -6.1,14.21 2.13,-6.37 8.65,-21.64 -13.97,11.34 3.67,-5.81 3.89,-13.4 2.44,-15.43 -4.59,-26.88l0.34 25.56c-8.81,-18.16 -18.1,-199.11 -21.33,-236 -7.34,1.17 -329.06,179.62 -349.56,196.19l21.18 292.16z"/>
   <path class="fil3" d="M396.92 616.21l7.15 85.85 15.2 7.24 -21.18 -292.16c20.49,-16.58 342.22,-195.02 349.56,-196.19 -14.62,-19.66 -27.62,-4.43 -45.45,5.59 -100.74,56.6 -225.11,133.76 -321.09,183.37l15.81 206.31z"/>
   <path class="fil3" d="M768.63 431.38c7.03,11.44 8.48,13.48 4.59,26.88 -2.43,15.73 -6.09,34.11 11.82,37.17 8.86,-6.21 2.55,-16.34 0.57,-31.49 -5.48,-42.07 -19.47,-246.99 -16.46,-260.09 58.3,-33.2 115.08,-64.54 171.68,-97.83 27.34,-16.09 60.78,-31.85 86.55,-48.66 20.68,-13.49 69.38,-43.01 90,-48.14 -13.93,-19.84 -29.57,-2.87 -46.18,6.37l-319.29 182.46 16.72 233.32z"/>
   <path class="fil7" d="M914.21 516.68c18.33,-5.46 124.35,-65.74 134.25,-78.27 -9.44,-13.48 -30.28,-16.54 -38.24,-28.71l-17.75 -6.47c-1.65,8.64 -53.53,36.8 -64.27,42.14 -11.57,5.75 -60.62,32.61 -67.03,39.25 8.4,6.49 18.27,10.54 27.99,17.49 23.27,16.64 19.38,3.35 25.04,14.57z"/>
   <path class="fil1" d="M576.51 414.01c-2.52,-19.26 -5.39,-23.96 12.29,-34.19 13.46,-7.79 19.62,-14.74 34.19,-15.82 1.18,20.24 5.87,24.95 -11.59,34.87 -13.24,7.52 -21.75,15.77 -34.88,15.14zm129.01 -96.43c16.65,-12.68 12.24,-5.6 19.24,-6.35l-2.35 21.67c-17.24,-2.99 -10.03,-3.32 -16.9,-15.32zm-54.49 5.26l-43.28 24.72c-14.06,18.81 -43.45,13.83 -41.26,38.6l3.18 44.92c14.44,-4.61 156.92,-85.56 167.34,-95.49l-2.9 -53.73c-28.54,7.11 -57.52,35.44 -83.07,40.98z"/>
   <path class="fil7" d="M640.53 674.28c12.4,-5.12 32.97,-13.17 37.67,-25.48 -7.75,-10.73 -23.74,-16.41 -34.9,-24.11l-17.44 -8.97 -134.94 79.27c51.02,42.79 54.72,25.72 70.9,16.92 17.36,-9.45 61.64,-40.6 78.71,-37.63z"/>
   <path class="fil8" d="M874.97 791.54c10.21,5.37 25.81,8.98 30.3,19.6 58.21,9.67 133.22,95.57 170.89,49.02 4.58,-5.66 24.63,-50.47 27.56,-58.91 -10.68,-5.18 -20.87,-4.47 -33.46,-10.01 -10.28,-4.53 -19.06,-11.34 -28.39,-15.97 3.31,22.51 14.67,22.4 5.45,45.76 -16.94,18.79 -93.96,-18.03 -128.09,-28.2 -7.16,-2.13 -15.6,-4.79 -23.08,-5.48 -5.23,-0.48 -8.18,-0.63 -13.33,0.42 -10.35,2.11 -1.7,-1.25 -7.85,3.77z"/>
   <path class="fil2" d="M1152.14 409.63c26.36,0.23 27.1,34.06 17.02,52.48 -29.45,5.7 -28.97,-37.09 -17.02,-52.48zm-5.33 -3.19c-7.3,6.69 -6.45,17.51 -9.79,28.47 4.07,28.45 15.53,37.59 37.2,44.68l15.86 -1.53c9.33,-19.67 13.08,-36.73 6.9,-58.7 -7.47,-26.57 -13.13,-24.87 6.48,-51.17 10.53,-14.12 24.49,-25.21 40.44,-33.95 29.17,-15.99 29.43,-11.87 51.41,5.01 0.59,-27.55 -16.36,-40.48 -43.2,-34.81 -7.29,5.08 -18.17,5.56 -24.18,7.64 -13.71,4.75 -32.02,23.23 -40.17,33.61 -16.6,21.13 -22.86,41.48 -40.95,60.76z"/>
   <path class="fil2" d="M786.23 242.85l4.44 0.75c16.27,-1.51 49.84,-22.15 60.23,-34.41 -12.94,-1.31 -8.8,1.57 -16.67,-10.41 7.05,-5.82 13.26,-13.54 21.2,-9.29 10.93,-2.29 74.72,-38.78 81.15,-46.89 -9.64,-5.22 2.68,-7.41 11.43,-11.94 27.58,-14.26 50.73,-34.74 63.65,-24.69 0.98,17.57 -25.37,16.66 -38.66,35.15 34.93,-13.98 102.23,-64.25 131.09,-69.14 -2.28,-8.72 -2.36,-17.5 -4.52,-29.98 -25.3,6.21 -126.91,72.55 -156.67,87.17 -16.17,7.95 -25.55,14.66 -38.53,21.8 -12.93,7.13 -25.38,14.19 -38.61,21.75 -22.42,12.82 -52.1,32.49 -76.94,41.56l-2.6 28.55z"/>
   <path class="fil2" d="M571.53 484.5l7.27 8.54c59.29,-36.16 98.29,-96.6 159.59,-131.59l-1.2 -14.77 -167.23 93.83 1.56 43.99z"/>
   <path class="fil0" d="M1134.47 378.43l12.35 28.01c18.09,-19.27 24.35,-39.63 40.95,-60.76 8.15,-10.38 26.46,-28.86 40.17,-33.61 6.01,-2.08 16.88,-2.56 24.18,-7.64 -34.09,0.91 -37.54,-19.41 -81.68,-4.59 -52.9,17.8 -40.12,57.62 -35.96,78.59z"/>
   <path class="fil9" d="M864.89 341.73c0.87,-4.02 -6.54,-2.4 11.22,-12.62 6.6,-3.8 9.38,-5.05 15.15,-6.37 -2.1,9.36 -16.88,15.72 -26.37,18.99zm-20.66 25.33c10.87,-10.91 50.51,-33.91 67.87,-37.47 9.15,-16.53 7.7,-40.14 4.76,-58.48 -9.13,2.15 -15.16,13.07 -21.17,20.82 -6.09,7.85 -12.42,17.26 -19.87,21.98 -8.42,-15.96 -4.95,-40.89 -9.05,-59.18 -28.46,18.45 -51.08,87.37 -22.53,112.33z"/>
   <path class="fil3" d="M705.56 550.65c6.96,6.28 30.45,12.15 39.49,9.99 5.77,-1.38 31.94,-17.07 38.83,-21.09 21.27,-12.4 55.64,-35.08 77.03,-42.72l-17.88 -16.11 -10.59 -7.28c-11.36,8.32 -36,25.99 -47.41,21.99 -17.91,-3.06 -14.25,-21.45 -11.82,-37.17 -17.64,17.15 4.97,-15.82 -3.67,5.81 -8.23,20.58 1.26,-11.41 -2.13,6.37 -0.21,1.1 0.22,12.49 0.36,14.19 0.82,10.37 1.81,13.99 1.34,24.89 -18.31,15.03 -50.27,22.68 -63.56,41.13z"/>
   <path class="fil10" d="M471.2 691.42c8.2,8.23 10.62,4.13 18.11,15.92 16.71,2.75 32.75,17.36 48.47,25.54l102.74 -58.6c-17.07,-2.98 -61.35,28.18 -78.71,37.63 -16.18,8.81 -19.88,25.88 -70.9,-16.92l134.94 -79.27 -16.9 -10.76c-22.76,1.96 -50.04,25.61 -70.98,37.06 -22.62,12.36 -45.47,25.64 -67.63,39.26l0.87 10.14z"/>
   <path class="fil3" d="M851.96 840.33c18.51,-5.2 36.79,-19.07 53.3,-29.19 -4.49,-10.62 -20.08,-14.24 -30.3,-19.6 -13.35,-6.83 -22.15,-15.18 -36.73,-19.01l-30.37 20.56 -57.99 -24.76 1.95 10.1c24.73,3.95 30.72,12.68 46.61,28.42 15.03,14.9 25.08,17.17 55.84,22.61l-2.32 10.87z"/>
   <path class="fil5" d="M1070.71 515.52l5.02 6.94c-14.79,2.54 -8.3,-1.73 -17.02,6.48l0.33 10.06c16,1.93 53.87,9.14 43.18,31.52 -13.95,4.25 -11.11,-11.44 -26.23,0.76 0.65,14.79 16.54,17.89 29.91,19.32 40.43,-41.63 26.14,-22.67 53.49,-48.02 -20.05,-24.84 -56.68,-33.72 -85.23,-36.43l-3.45 9.36z"/>
   <path class="fil10" d="M843.03 480.72l17.88 16.11c15.73,2.52 31.29,16.53 45.52,24.31l7.77 -4.45c-5.66,-11.22 -1.77,2.07 -25.04,-14.57 -9.72,-6.95 -19.59,-11 -27.99,-17.49 6.41,-6.63 55.46,-33.5 67.03,-39.25 10.73,-5.34 62.61,-33.5 64.27,-42.14 -4.68,-8.64 -3.11,-5.03 -11.39,-6.3 -19.69,-3.77 -84.68,40.38 -112.43,56.27 -32.39,18.55 -30.65,10.95 -25.62,27.51z"/>
   <path class="fil0" d="M912.1 329.59c-8.85,24.95 -42.51,71.06 -67.87,37.47 -28.55,-24.96 -5.93,-93.88 22.53,-112.33 4.11,18.3 0.64,43.22 9.05,59.18 7.44,-4.72 13.78,-14.13 19.87,-21.98 6.01,-7.76 12.05,-18.67 21.17,-20.82 2.94,18.34 4.39,41.95 -4.76,58.48zm-13.86 -81.87c-3,14.54 -10.57,34.61 -19.46,45.03 -3.23,-13.67 -5.83,-33.52 -1.19,-45.92l20.66 0.88zm-58.76 121.78c12.27,36.71 68.71,1.35 75.93,-35.07 9.25,-19.88 14.57,-45.32 6.36,-67.04 -7.07,-18.69 -12.37,-6.38 -5.35,-28.9 4.32,-13.87 7.63,-17.42 8.36,-32.36 -9.29,11.03 -9.67,21.92 -14.85,36.96 -17.44,0.01 -25.6,-8.95 -44.23,4.46 -10.14,7.3 -19.65,19.24 -26.17,31.08 -13.74,24.95 -21.18,68.42 -0.06,90.88z"/>
   <path class="fil2" d="M566.48 386.16c-2.19,-24.77 27.21,-19.79 41.26,-38.6 -15.08,5 -5.62,2.77 -9.44,-2.55l-7.49 -1.34c15.69,-9.75 50.85,-24.67 59.8,-38.31 -5.4,-5.88 -3.85,-0.73 11.13,-8.83 22.09,-11.94 34.82,-27.12 49.39,-17.52 -2.1,20.08 -26.8,16.52 -60.1,43.82 25.56,-5.54 54.53,-33.87 83.07,-40.98l-4.1 -28.43c-19.7,3.75 -140.67,77.24 -166.4,92.82 -0.13,11.36 -3.12,30.57 2.87,39.91z"/>
   <path class="fil3" d="M608.95 604.96l16.9 10.76 17.44 8.97c10.79,-18.59 59.6,-36.16 78.94,-50.89l-35.85 -15.38c-14.15,6.71 -70.78,36.53 -77.43,46.54z"/>
   <path class="fil11" d="M936.57 142.61l8.22 4.8 -101.51 55.92c1.63,-6.64 -2.4,-1.46 4.63,-8.84 1.21,-1.27 5.52,-3.48 7.51,-5 -7.93,-4.25 -14.15,3.47 -21.2,9.29 7.87,11.99 3.73,9.1 16.67,10.41 11.19,-2 114.11,-60.55 122.1,-68.07 13.29,-18.49 39.64,-17.57 38.66,-35.15 -12.92,-10.05 -36.07,10.43 -63.65,24.69 -8.76,4.53 -21.07,6.72 -11.43,11.94z"/>
   <path class="fil3" d="M981.08 396.94c8.29,1.27 6.71,-2.34 11.39,6.3l17.75 6.47c7.9,-15.18 60.9,-30 72.99,-49.67 -10.43,-6.46 -7.18,-4.82 -19.91,-5.69l-3.74 -9.6c-14.67,7.91 -29.41,16.27 -44.01,24.37 -7.11,3.94 -13.3,7.79 -20.51,11.55 -12.01,6.26 -15.98,5.48 -13.95,16.27z"/>
   <path class="fil2" d="M611.6 800.13c14.84,-0.99 18.67,1.08 29.89,11.49 -12.06,10.3 -26.31,21.12 -41.87,22.66l44.62 29.96c3.35,-13.57 22.59,-23.19 35.73,-28.31l9.93 3.14 1.81 -4.3 -73.13 -41.43 -6.97 6.8z"/>
   <path class="fil9" d="M972.99 141.13c-7.99,7.52 -110.91,66.07 -122.1,68.07 -10.39,12.26 -43.96,32.9 -60.23,34.41 6.96,11.74 -1.16,5.84 10.88,4.42l300.63 -171.54 1.9 -4.51c-28.86,4.9 -96.16,55.16 -131.09,69.14z"/>
   <path class="fil5" d="M1279.92 491.59c-15.16,11.86 -35.53,8.8 -56.37,10.7 -24.23,2.22 -26.95,16.47 -41.51,14.46l2.17 15.02c26.1,-4.64 96.21,-10.24 106.93,-35.72l1.1 -7.85 -12.32 3.38z"/>
   <path class="fil0" d="M693.63 833.76l-1.85 4.44 2.77 8.31c-9.14,4.69 -15.97,9.26 -23.54,14.1 -15.14,9.66 -10.18,5.71 -25.84,3.62l-45.55 -30.97 -16.87 -13.5 29.1 -21.79 7.12 -7.03c-12.57,-2.51 -40.95,15.8 -46.95,28.11 6.21,13.73 72.17,53.89 89.47,60.4 13.55,-2.79 36.47,-17.38 44.64,-28.21 -6.45,-18.1 -9.36,-6.75 -12.51,-17.47z"/>
   <path class="fil3" d="M1079.8 630.11c9.62,-7.54 14.42,-19.66 19.99,-31.41 -14.72,-8.2 -30.5,-6.45 -35.52,-25.78 -3.1,-11.98 1.21,-11.75 -6.21,-22.24 -10.22,-14.45 -10.61,-0.68 -8.55,-26.25 -2.92,1.93 -13.75,3.14 -5.11,29.09 7.15,21.48 20.69,63.27 35.41,76.58z"/>
   <path class="fil0" d="M1128.94 437.96c-2.74,31.94 12.92,78.86 51.59,74.82 -2.15,-17.55 -7.04,-13.25 -6.31,-33.18 -21.67,-7.09 -33.13,-16.22 -37.2,-44.68l-8.08 3.04z"/>
   <path class="fil11" d="M890.78 722.27c-1.21,10.84 -2.64,4.76 4.24,7.93 20.24,-13.97 121.33,-88.88 132.01,-103.13l-1.86 -5.85 -134.39 101.06z"/>
   <path class="fil0" d="M650.61 305.37l9.71 2.3 -62.02 37.35c3.82,5.31 -5.64,7.55 9.44,2.55l43.28 -24.72c33.3,-27.3 58,-23.74 60.1,-43.82 -14.57,-9.6 -27.3,5.58 -49.39,17.52 -14.99,8.1 -16.53,2.96 -11.13,8.83z"/>
   <path class="fil9" d="M576.51 414.01c13.13,0.63 21.64,-7.62 34.88,-15.14 17.47,-9.92 12.77,-14.63 11.59,-34.87 -14.57,1.09 -20.73,8.03 -34.19,15.82 -17.67,10.23 -14.81,14.93 -12.29,34.19z"/>
   <path class="fil12" d="M1174.22 479.61c-0.73,20.22 4.16,15.86 6.31,33.65l1.51 4.03c14.56,2.03 17.28,-12.42 41.51,-14.67 20.83,-1.93 41.21,1.18 56.37,-10.86 -28.16,3.77 -68.62,8.54 -89.84,-13.71l-15.86 1.54z"/>
   <path class="fil10" d="M844.23 367.06c25.36,33.59 59.02,-12.52 67.87,-37.47 -17.36,3.55 -57,26.55 -67.87,37.47z"/>
   <path class="fil11" d="M749.88 768.33l57.99 24.76 30.37 -20.56 -5.36 -5.16c-18.89,3.07 -6.55,1.51 -21.5,13.59 -17.14,-3.22 -75.78,-30.61 -93.84,-40.13l-1.96 10.14 34.32 17.35z"/>
   <path class="fil1" d="M598.88 833.25c15.19,-1.52 29.1,-12.21 40.87,-22.39 -10.95,-10.28 -14.69,-12.33 -29.18,-11.35l-27.82 20.83 16.12 12.91z"/>
   <path class="fil0" d="M946.22 249.82l1.91 14.61 37.9 -20.9c-0.16,-16.09 -1.3,-29.23 -18.29,-31.01l-2.52 18.43c-14.05,8.66 -11.18,-2.43 -11.98,19.15l-7.02 -0.28z"/>
   <path class="fil9" d="M986.03 243.53l-37.9 20.9 -1.91 -14.61 -5.93 -42.53c-9.15,13.34 -3.14,49.62 -0.19,66.68 15.79,1.05 37.53,-16.16 50.6,-26.05l-4.68 -4.39z"/>
   <path class="fil9" d="M1014.34 232.03c15.68,-1.39 42.11,-17.54 50.27,-28.82 -19.05,2.25 -33.09,18.23 -44.8,19.61 -1.53,-18.14 1.43,-43.22 -6.64,-58.37 -9.22,13.42 -2.43,49.77 1.17,67.58z"/>
   <path class="fil1" d="M645.17 864.23c15.66,2.08 10.7,6.04 25.84,-3.62 7.58,-4.83 14.4,-9.41 23.54,-14.1l-2.77 -8.31 -10.14 -3.24c-13.41,5.29 -33.06,15.24 -36.48,29.27z"/>
   <path class="fil13" d="M1163.07 457.14c-15.77,-8.85 -14.95,-29.27 -5.75,-42.08 13.56,8.27 13.99,29.36 5.75,42.08zm-10.93 -47.51c-11.95,15.39 -12.43,58.18 17.02,52.48 10.08,-18.42 9.34,-52.26 -17.02,-52.48z"/>
   <path class="fil10" d="M877.58 246.83c-4.64,12.39 -2.03,32.25 1.19,45.92 8.89,-10.42 16.46,-30.49 19.46,-45.03l-20.66 -0.88z"/>
   <path class="fil0" d="M1000.65 326.66c16.53,-4.44 78.13,-38.26 84.51,-51.45 -15.11,4.95 -29.45,15.53 -43.7,23.75 -11.71,6.76 -37.77,15.5 -40.82,27.69z"/>
   <path class="fil2" d="M648.69 476.45c14.7,0.52 31.43,-13.04 44.31,-20.76 13.9,-8.34 34.19,-15.37 41.59,-28.68 -16.41,5.28 -73.55,37.04 -85.9,49.43z"/>
   <path class="fil9" d="M855.42 189.49c-2,1.52 -6.31,3.72 -7.51,5 -7.04,7.38 -3.01,2.2 -4.63,8.84l101.51 -55.92 -8.22 -4.8c-6.43,8.11 -70.21,44.59 -81.15,46.89z"/>
   <path class="fil9" d="M1104.46 147.29l2.61 -3.16c-6.02,-11.66 -4.44,-30.89 -7.68,-44.55 -9.28,11.9 -4.85,19.34 -2.39,44.24 1.39,14.04 0.51,28.79 7.59,40.75l-0.14 -37.28z"/>
   <path class="fil3" d="M1163.07 457.14c8.23,-12.72 7.81,-33.81 -5.75,-42.08 -9.2,12.81 -10.02,33.23 5.75,42.08z"/>
   <path class="fil5" d="M1128.94 437.96l8.08 -3.04c3.35,-10.96 2.49,-21.78 9.79,-28.47l-12.35 -28.01 -5.53 59.53z"/>
   <path class="fil2" d="M1102.22 570.52c10.69,-22.38 -27.18,-29.59 -43.18,-31.52l3.34 9.04c37.23,10.89 17.97,7.44 39.84,22.48z"/>
   <path class="fil0" d="M1067.14 237.94c1.53,10.17 1.35,10.94 9.8,14.21l7.82 -25.61 -4.13 -10.63c-11.6,0.18 -7.68,-0.79 -16.44,8.59l2.96 13.44z"/>
   <path class="fil2" d="M1312.15 577.55l-5.06 24.58c-30.3,0.46 -21.4,-21.48 -17.34,-37.51 -15.57,7.86 -14.97,28.21 -0.51,39.63 17.09,13.5 34.44,-5.45 22.91,-26.71z"/>
   <path class="fil0" d="M1026.18 298.2c12.45,-5.86 54.26,-25.53 57.17,-35.96 -11.54,1.81 -54.96,25.29 -57.17,35.96z"/>
   <path class="fil2" d="M467.45 440.39c11.34,-1.58 57.94,-26.27 60.88,-35.57 -10.24,2.67 -55.89,25.78 -60.88,35.57z"/>
   <path class="fil1" d="M825.74 419.81c-2.8,-12.86 -3.7,-4.79 3.48,-15.31 4.63,10.83 7.08,6.73 -3.48,15.31zm-3.77 4.42c16.1,-0.29 19.96,-9.05 13.56,-23.94 -16.87,-1.33 -22.33,8.23 -13.56,23.94z"/>
   <path class="fil9" d="M598.31 345.01l62.02 -37.35 -9.71 -2.3c-8.95,13.64 -44.11,28.56 -59.8,38.31l7.49 1.34z"/>
   <path class="fil9" d="M705.53 317.58c6.87,12 -0.34,12.33 16.9,15.32l2.35 -21.67c-7.01,0.75 -2.6,-6.33 -19.24,6.35z"/>
   <path class="fil2" d="M728.84 463.47c-10.84,14.93 -34.6,14.88 -42.44,31.39l52.42 -26.98 -9.98 -4.41z"/>
   <path class="fil2" d="M728.84 463.47l8.3 -9.88c-11.99,0.35 -29.68,9.67 -36.3,20.01 17.46,-1.57 10.97,-7.27 28,-10.13z"/>
   <path class="fil9" d="M1054.71 123.52c10.07,-0.78 25.77,-9.39 29.41,-18.28 -9.38,0.22 -26.82,8.3 -29.41,18.28z"/>
   <path class="fil2" d="M516.09 474.76c13.26,1.9 35.41,-10.47 38.17,-20.63l-38.17 20.63z"/>
   <path class="fil9" d="M807.24 264.22c10.79,-2.16 24.21,-8.56 28.92,-17.71 -12.62,2.03 -23.84,6.18 -28.92,17.71z"/>
   <path class="fil2" d="M864.89 341.73c9.5,-3.27 24.27,-9.63 26.37,-18.99 -5.77,1.32 -8.55,2.57 -15.15,6.37 -17.76,10.22 -10.36,8.6 -11.22,12.62z"/>
   <path class="fil2" d="M484.75 479.78c10.61,-1.8 25.93,-8.83 29.93,-18.49 -9.21,2.32 -25.58,9.48 -29.93,18.49z"/>
   <path class="fil9" d="M807.37 277.71c12.15,0.24 17.97,-2.85 22.27,-13.22 -10.8,1.5 -17.58,2.76 -22.27,13.22z"/>
   <path class="fil2" d="M526.63 438.54c10.96,-0.97 19.11,-4.47 25.01,-13.79 -11.79,0.97 -16.65,3.51 -25.01,13.79z"/>
   <path class="fil2" d="M484.38 416.21l27.04 -14.87c-8.89,-0.79 -13.85,0.5 -22.05,7.36 -8.56,7.16 -3.49,3.13 -4.99,7.51z"/>
   <path class="fil2" d="M483.37 464.22c12.4,-2.7 12.89,-2.9 19.13,-11.07 -4.55,0.54 -3.65,-2.37 -11.91,2.58 -12.37,7.42 -2.51,0.99 -7.22,8.49z"/>
   <path class="fil2" d="M472.56 502.73c12.01,-2.4 12.03,-2.72 19.6,-11.06 -5.5,0.8 -1.62,-3.48 -12.69,2.99 -7.35,4.29 -3.57,2.04 -6.91,8.07z"/>
   <path class="fil9" d="M825.74 419.81c10.56,-8.58 8.11,-4.48 3.48,-15.31 -7.18,10.52 -6.28,2.45 -3.48,15.31z"/>
   <path class="fil2" d="M497.23 488.49c10.31,-1.94 10.29,0.15 14.94,-9.93 -3.63,1 -0.86,-2.09 -7.67,2.15 -7.71,4.79 -3.48,1.25 -7.27,7.78z"/>
   <path class="fil2" d="M491.07 508.95l20.35 -10.77c-10.24,0.06 -15.87,2.22 -20.35,10.77z"/>
   <path class="fil2" d="M476.67 452.51l17.26 -9.3c-10.93,-0.25 -12.93,-0.43 -17.26,9.3z"/>
   <path class="fil2" d="M508.33 450.01l15.13 -6.89c-9.38,-0.92 -15.1,-2.22 -15.13,6.89z"/>
   <path class="fil2" d="M537.22 402.42l14.47 -7.92c-10.62,-0.83 -13.34,-1.41 -14.47,7.92z"/>
  </g>
 </g>
</svg>
