<?xml version="1.0" encoding="UTF-8"?>
<!DOCTYPE svg PUBLIC "-//W3C//DTD SVG 1.1//EN" "http://www.w3.org/Graphics/SVG/1.1/DTD/svg11.dtd">
<!-- Creator: CorelDRAW 2021 (64-Bit) -->
<svg xmlns="http://www.w3.org/2000/svg" xml:space="preserve" width="3.02667in" height="3.02667in" version="1.1" style="shape-rendering:geometricPrecision; text-rendering:geometricPrecision; image-rendering:optimizeQuality; fill-rule:evenodd; clip-rule:evenodd"
viewBox="0 0 523.96 523.96"
 xmlns:xlink="http://www.w3.org/1999/xlink"
 xmlns:xodm="http://www.corel.com/coreldraw/odm/2003">
 <defs>
  <style type="text/css">
   <![CDATA[
    .fil0 {fill:black}
   ]]>
  </style>
 </defs>
 <g id="Layer_x0020_1">
  <metadata id="CorelCorpID_0Corel-Layer"/>
  <g id="_1327907209328">
   <path class="fil0" d="M261.98 0c144.69,0 261.98,117.29 261.98,261.98 0,144.69 -117.29,261.98 -261.98,261.98 -144.69,0 -261.98,-117.29 -261.98,-261.98 0,-144.69 117.29,-261.98 261.98,-261.98zm-91.3 168.68c7.14,-2.95 59.02,-2.72 65.4,0.99 13.27,7.71 8.06,42.05 8.06,60.07 0,22.62 0,45.24 0,67.86 0,18.28 5.54,51.8 -9.86,58.24 -7.13,2.98 -59.61,2.64 -66.18,-0.82 -13.47,-7.09 -8.17,-42.52 -8.17,-60.25l-0.02 -101.79c-0.08,-14.31 -0.21,-19.77 10.77,-24.3zm120.35 0.12c7.15,-3.23 38.63,-1.5 49,-1.55 22.07,-0.11 24.67,5.57 24.57,27.15 -0.51,107.14 12.06,93.52 -59.93,93.87 -22.19,0.11 -24.39,-6.06 -24.3,-27.42 0.07,-16.96 0.01,-33.93 0.01,-50.9 0,-22.2 -3.83,-34.6 10.65,-41.15zm-140.17 -44.08c-20.74,4.79 -27.23,18.73 -27.16,42.82 0.07,26.89 -1.7,195.35 1.12,206.8 4.82,19.57 20.03,25.97 42.72,25.91 26.9,-0.06 194.75,1.62 206.26,-0.95 19.89,-4.44 26.51,-19.06 26.46,-42.31 -0.06,-26.95 1.53,-195.21 -0.78,-206.65 -4.13,-20.45 -19.23,-26.72 -42.5,-26.66 -26.85,0.07 -194.65,-1.62 -206.12,1.03z"/>
   <path class="fil0" d="M170.68 168.68c-10.98,4.53 -10.85,9.99 -10.77,24.3l0.02 101.79c0,17.73 -5.3,53.16 8.17,60.25 6.57,3.46 59.05,3.8 66.18,0.82 15.4,-6.44 9.86,-39.95 9.86,-58.24 0,-22.62 0,-45.24 0,-67.86 0,-18.03 5.21,-52.36 -8.06,-60.07 -6.38,-3.71 -58.26,-3.94 -65.4,-0.99z"/>
   <path class="fil0" d="M291.03 168.8c-14.48,6.55 -10.65,18.95 -10.65,41.15 0,16.96 0.07,33.94 -0.01,50.9 -0.09,21.36 2.11,27.53 24.3,27.42 71.99,-0.35 59.42,13.27 59.93,-93.87 0.1,-21.59 -2.5,-27.27 -24.56,-27.15 -10.37,0.05 -41.85,-1.68 -49,1.55z"/>
  </g>
 </g>
</svg>
