<?xml version="1.0" encoding="UTF-8"?>
<!DOCTYPE svg PUBLIC "-//W3C//DTD SVG 1.1//EN" "http://www.w3.org/Graphics/SVG/1.1/DTD/svg11.dtd">
<!-- Creator: CorelDRAW 2021 (64-Bit) -->
<svg xmlns="http://www.w3.org/2000/svg" xml:space="preserve" width="3.02667in" height="3.02667in" version="1.1" style="shape-rendering:geometricPrecision; text-rendering:geometricPrecision; image-rendering:optimizeQuality; fill-rule:evenodd; clip-rule:evenodd"
viewBox="0 0 291.57 291.57"
 xmlns:xlink="http://www.w3.org/1999/xlink"
 xmlns:xodm="http://www.corel.com/coreldraw/odm/2003">
 <defs>
  <style type="text/css">
   <![CDATA[
    .fil0 {fill:black}
   ]]>
  </style>
 </defs>
 <g id="Layer_x0020_1">
  <metadata id="CorelCorpID_0Corel-Layer"/>
  <path class="fil0" d="M145.78 0c80.51,0 145.78,65.27 145.78,145.78 0,80.51 -65.27,145.78 -145.78,145.78 -80.51,0 -145.78,-65.27 -145.78,-145.78 0,-80.51 65.27,-145.78 145.78,-145.78zm-64.44 108.49c-10.92,5.18 -17.04,5.51 -27.41,12.26 -29.21,19.02 -17.28,44.6 12.63,56.96 4.56,1.89 10.27,3.37 14.78,5.51 -4.27,21.4 -7.01,48.88 11.64,57.54 22.53,10.45 47.59,-17.35 53.43,-19.95 28.77,30.01 79.36,39.45 63.99,-37.58 12.74,-5.88 43.57,-13.43 44.02,-36.83 0.47,-24.21 -30.78,-31.79 -44.02,-37.91 8.92,-44.7 -4.82,-73.25 -42.4,-53.72 -6.95,3.61 -17.11,11.4 -21.59,16.17 -5.08,-2.34 -10.7,-9.8 -21.95,-15.8 -37.48,-20.01 -52.34,7.14 -43.12,53.36zm18.98 63.46l8.46 1.89 -5.12 -9.72 -3.33 7.83zm87.78 -44.35l3.33 -7.83 -8.45 -1.92 5.12 9.75zm-87.7 -8.09l2.86 8.13 5.74 -9.55 -8.61 1.41zm82.34 54.14l8.61 -1.47 -2.86 -8.11 -5.75 9.58zm-35.91 24.81l4.7 -7.13 -11.1 -0.14c0.99,1.87 1.32,2.67 2.38,4.14 2.57,3.56 0.48,1.56 4.02,3.12zm-6.6 -98.07l11.11 0.14c-0.97,-1.82 -1.36,-2.73 -2.38,-4.15 -2.54,-3.53 -0.5,-1.56 -4.03,-3.11l-4.7 7.12zm-55.27 68.07l2.68 -5.39c8.65,-23.54 8.11,-11.55 0.27,-33.61 -0.28,-0.79 -0.87,-2.49 -1.2,-3.19l-1.75 -3.01c-11.26,2.98 -31.89,12.14 -32.38,22.12 -0.53,10.69 21.16,20.1 32.38,23.07zm71.46 -86.45c2.16,3.05 3.98,4.93 6.46,8.04 11.84,14.9 4.28,10.73 18.67,12.58 5.09,0.66 9.34,1.65 14.52,2.32 3.45,-22 7.98,-55.52 -24.59,-34.84 -8.78,5.57 -9.88,8.02 -15.06,11.9zm50.38 86.46c34.86,-9.35 50.13,-29.21 0,-45.26 -0.99,1.12 -9.01,21.27 -9.07,22.3 -0.13,2.31 2.99,8.33 4.12,11.23 1.43,3.69 2.72,8.68 4.95,11.73zm-50.38 41.25c5.96,4.46 21.62,20.52 33.58,17.95 13.45,-2.89 7.88,-29.36 6.07,-40.89l-20.42 2.92c-6.48,0.83 -4.04,0.89 -12.31,11.36 -2.56,3.24 -4.68,5.49 -6.93,8.66zm-60.74 -104.77l20.42 -2.93c6.57,-0.84 3.88,-0.7 12.31,-11.36 2.65,-3.35 4.65,-5.35 6.93,-8.72 -5.97,-4.36 -21.41,-20.35 -33.62,-17.92 -13.57,2.7 -7.82,29.56 -6.04,40.92zm39.65 104.77l-13.44 -17.27c-2.51,-2.97 1.31,-1.61 -4.85,-2.65l-21.37 -3.02c-1.83,11.66 -7.72,39.27 6.87,41.04 12.21,1.49 26.65,-13.51 32.78,-18.1zm27.26 -33.79c2.37,-2.17 17.29,-26.91 17.52,-29.76 0.22,-2.63 -14.68,-27.76 -17.52,-30.37 -6.81,-0.47 -13.66,-0.43 -20.49,-0.4 -7.5,0.04 -12.4,-1.78 -16.03,4.15 -1.73,2.83 -14.25,23.71 -14.44,26 -0.21,2.49 11.76,22.07 14.04,25.92 3.94,6.66 6.59,4.79 15.34,4.84 7.19,0.04 14.4,0.1 21.57,-0.39z"/>
 </g>
</svg>
