<?xml version="1.0" encoding="UTF-8"?>
<!DOCTYPE svg PUBLIC "-//W3C//DTD SVG 1.1//EN" "http://www.w3.org/Graphics/SVG/1.1/DTD/svg11.dtd">
<!-- Creator: CorelDRAW 2021 (64-Bit) -->
<svg xmlns="http://www.w3.org/2000/svg" xml:space="preserve" width="3.03333in" height="3.03333in" version="1.1" style="shape-rendering:geometricPrecision; text-rendering:geometricPrecision; image-rendering:optimizeQuality; fill-rule:evenodd; clip-rule:evenodd"
viewBox="0 0 810.74 810.74"
 xmlns:xlink="http://www.w3.org/1999/xlink"
 xmlns:xodm="http://www.corel.com/coreldraw/odm/2003">
 <defs>
  <style type="text/css">
   <![CDATA[
    .str0 {stroke:#373435;stroke-width:1.78;stroke-miterlimit:2.61313}
    .fil0 {fill:black}
   ]]>
  </style>
 </defs>
 <g id="Layer_x0020_1">
  <metadata id="CorelCorpID_0Corel-Layer"/>
  <path class="fil0 str0" d="M405.37 0.89c223.39,0 404.48,181.09 404.48,404.48 0,223.39 -181.09,404.48 -404.48,404.48 -223.39,0 -404.48,-181.09 -404.48,-404.48 0,-223.39 181.09,-404.48 404.48,-404.48zm-208.36 332l7.43 88.08 310.07 1.61 -10.53 114.19c-17.81,3.89 -34.94,9.32 -52,13.77 -12.03,3.14 -35.93,11.68 -47.31,11.53l-0.19 -0 -0.39 -0.01 -0.25 -0.01 -0.38 -0.02 -0.14 -0.01 -0.44 -0.05 -0.16 -0.02 -0.41 -0.06 -0.08 -0.01 -0.42 -0.08 -0.06 -0.01c-0.31,-0.07 -0.61,-0.15 -0.88,-0.25l-0.01 -0c-0.14,-0.05 -0.27,-0.1 -0.4,-0.16l-0.01 -0c-0.26,-0.11 -0.5,-0.24 -0.71,-0.39 -10.22,-0.19 -87.69,-20.77 -96.33,-25.72l-6.96 -71.17 -92.02 -0.46 12.75 143.28 187.9 51.44 184.16 -49.89 38.99 -456.04 -223.15 0.36 -222.54 -0.18 6.94 87.43 215.6 0.83 127.15 0.4 -9.29 90.34 -325.92 1.3z"/>
 </g>
</svg>
