<?xml version="1.0" encoding="UTF-8"?>
<!DOCTYPE svg PUBLIC "-//W3C//DTD SVG 1.1//EN" "http://www.w3.org/Graphics/SVG/1.1/DTD/svg11.dtd">
<!-- Creator: CorelDRAW 2021 (64-Bit) -->
<svg xmlns="http://www.w3.org/2000/svg" xml:space="preserve" width="3.02667in" height="3.02667in" version="1.1" style="shape-rendering:geometricPrecision; text-rendering:geometricPrecision; image-rendering:optimizeQuality; fill-rule:evenodd; clip-rule:evenodd"
viewBox="0 0 526.6 526.6"
 xmlns:xlink="http://www.w3.org/1999/xlink"
 xmlns:xodm="http://www.corel.com/coreldraw/odm/2003">
 <defs>
  <style type="text/css">
   <![CDATA[
    .fil0 {fill:black}
   ]]>
  </style>
 </defs>
 <g id="Layer_x0020_1">
  <metadata id="CorelCorpID_0Corel-Layer"/>
  <g id="_2408658171840">
   <path class="fil0" d="M263.3 0c145.41,0 263.3,117.88 263.3,263.3 0,145.42 -117.88,263.3 -263.3,263.3 -145.41,0 -263.3,-117.88 -263.3,-263.3 0,-145.42 117.88,-263.3 263.3,-263.3zm-91.76 169.53c7.18,-2.96 59.31,-2.74 65.73,0.99 13.34,7.75 8.1,42.26 8.1,60.37 0,22.73 0,45.47 0,68.2 0,18.38 5.57,52.06 -9.91,58.53 -7.16,3 -59.91,2.66 -66.51,-0.82 -13.54,-7.13 -8.21,-42.73 -8.21,-60.55l-0.02 -102.3c-0.08,-14.39 -0.22,-19.87 10.82,-24.42zm120.96 0.12c7.19,-3.25 38.83,-1.51 49.25,-1.56 22.18,-0.11 24.79,5.6 24.69,27.29 -0.52,107.68 12.12,93.99 -60.23,94.34 -22.3,0.11 -24.52,-6.09 -24.42,-27.56 0.07,-17.05 0.01,-34.11 0.01,-51.15 0,-22.31 -3.85,-34.78 10.71,-41.36zm-140.87 -44.3c-20.85,4.81 -27.37,18.83 -27.3,43.03 0.07,27.03 -1.71,196.33 1.12,207.84 4.85,19.67 20.13,26.1 42.94,26.04 27.04,-0.07 195.72,1.63 207.3,-0.95 19.99,-4.46 26.65,-19.16 26.59,-42.52 -0.06,-27.09 1.54,-196.19 -0.78,-207.69 -4.15,-20.55 -19.33,-26.85 -42.71,-26.79 -26.98,0.07 -195.63,-1.63 -207.16,1.03z"/>
  </g>
 </g>
</svg>
