<?xml version="1.0" encoding="UTF-8"?>
<!DOCTYPE svg PUBLIC "-//W3C//DTD SVG 1.1//EN" "http://www.w3.org/Graphics/SVG/1.1/DTD/svg11.dtd">
<!-- Creator: CorelDRAW 2021 (64-Bit) -->
<svg xmlns="http://www.w3.org/2000/svg" xml:space="preserve" width="3.03333in" height="3.03333in" version="1.1" style="shape-rendering:geometricPrecision; text-rendering:geometricPrecision; image-rendering:optimizeQuality; fill-rule:evenodd; clip-rule:evenodd"
viewBox="0 0 2290.37 2290.37"
 xmlns:xlink="http://www.w3.org/1999/xlink"
 xmlns:xodm="http://www.corel.com/coreldraw/odm/2003">
 <defs>
  <style type="text/css">
   <![CDATA[
    .str0 {stroke:#373435;stroke-width:5.03;stroke-miterlimit:2.61313}
    .fil0 {fill:black}
   ]]>
  </style>
 </defs>
 <g id="Layer_x0020_1">
  <metadata id="CorelCorpID_0Corel-Layer"/>
  <path class="fil0 str0" d="M1145.19 2.52c631.08,0 1142.67,511.59 1142.67,1142.67 0,631.08 -511.59,1142.67 -1142.67,1142.67 -631.08,0 -1142.67,-511.59 -1142.67,-1142.67 0,-631.08 511.59,-1142.67 1142.67,-1142.67zm745.51 746.14c-55.68,-77.33 -81.11,-126.08 -188.73,-162.62 -94.89,-32.22 -219.1,-24.33 -305.68,12.6 -192.5,82.08 -222.43,331.04 -114.22,475.42 116.38,155.3 381.87,178.67 431.88,273.65 78.79,149.66 -160.59,224.41 -290.82,123.95 -26.81,-20.68 -65.04,-58.05 -79.16,-93.86 -46.17,15.56 -147.37,82.25 -191.93,108.92 74.58,147.93 236.96,256.82 476.02,235 208.05,-18.98 360.39,-149.35 328.29,-380.06 -27.71,-199.07 -206.21,-265.72 -379.84,-339.31 -44.1,-18.69 -85.27,-40.3 -108.13,-71.35 -32.95,-44.74 -17.42,-109.02 13.26,-135.8 31.99,-27.94 93.38,-33.07 139.07,-16.49 50.61,18.36 59.86,53.76 92.46,86.72l177.52 -116.78zm-1560.96 758.27c17.63,57.91 78.51,122.39 116.51,149.09 166.76,117.17 454.02,82.27 539.44,-93.75 57.12,-117.69 39.34,-328.43 39.34,-473.62 0,-169.44 0,-338.88 0,-509.6l-232.72 1.95c0,220.8 0,441.6 0,662.41 0,97.17 20.04,235.89 -70.39,265.39 -116.35,37.95 -167.04,-44.76 -202.9,-112.29l-189.28 110.41z"/>
 </g>
</svg>
