<?xml version="1.0" encoding="UTF-8"?>
<!DOCTYPE svg PUBLIC "-//W3C//DTD SVG 1.1//EN" "http://www.w3.org/Graphics/SVG/1.1/DTD/svg11.dtd">
<!-- Creator: CorelDRAW 2021 (64-Bit) -->
<svg xmlns="http://www.w3.org/2000/svg" xml:space="preserve" width="3.03333in" height="3.03333in" version="1.1" style="shape-rendering:geometricPrecision; text-rendering:geometricPrecision; image-rendering:optimizeQuality; fill-rule:evenodd; clip-rule:evenodd"
viewBox="0 0 376.66 376.66"
 xmlns:xlink="http://www.w3.org/1999/xlink"
 xmlns:xodm="http://www.corel.com/coreldraw/odm/2003">
 <defs>
  <style type="text/css">
   <![CDATA[
    .str0 {stroke:#373435;stroke-width:0.83;stroke-miterlimit:2.61313}
    .fil0 {fill:black}
   ]]>
  </style>
 </defs>
 <g id="Layer_x0020_1">
  <metadata id="CorelCorpID_0Corel-Layer"/>
  <path class="fil0 str0" d="M188.33 0.41c103.78,0 187.92,84.13 187.92,187.92 0,103.78 -84.13,187.92 -187.92,187.92 -103.78,0 -187.92,-84.13 -187.92,-187.92 0,-103.78 84.13,-187.92 187.92,-187.92zm-11.24 236.98c6.28,67.15 -33.73,56.89 -45.3,46.4 -11.31,-10.25 -11.75,-26.95 -0.74,-38.05 11.58,-11.68 27.01,-8.16 46.04,-8.35zm0.04 -21.83c-10.95,-0.12 -29.63,1.55 -38.54,-2.64 -7.96,-3.74 -15.71,-13.56 -15.44,-25.14 0.26,-11.24 8.36,-20.87 16.37,-24.2 8.81,-3.66 26.88,-2.11 37.87,-2.23l-0.26 54.21zm45.27 -53.68c15.33,-2.84 28.81,9.06 30.91,21.97 2.66,16.25 -9.16,29.03 -22.15,31.17 -35.3,5.81 -44.48,-46.53 -8.76,-53.14zm-22.52 -76.41c11.17,0.16 29.36,-1.62 38.33,2.57 19.86,9.28 21.46,39.35 -0.95,49.26 -8.88,3.92 -26.69,2.14 -37.8,2.25l0.42 -54.08zm-22.78 54.08c-11.22,-0.11 -29.25,1.82 -38.41,-2.68 -22.51,-11.05 -18.89,-40.98 0.91,-49.21 8.83,-3.67 26.39,-2.03 37.77,-2.19l-0.26 54.08zm-58.67 10.92c-24.02,27.15 -23.97,48.91 0,76 -10.71,11.48 -22.65,27.33 -15.56,51.48 11.74,40 64.04,47.92 87.96,14.28 15.59,-21.92 4.03,-39.96 9.32,-62.44 31.45,22.11 81.35,-4.72 75.25,-48.28 -2.2,-15.72 -10.16,-23.32 -16.99,-31.03 18.58,-19.92 25.01,-43.92 7.51,-67.48 -16.84,-22.67 -41.73,-19.43 -76.83,-19.43 -34.39,0 -60.61,-3.59 -77.59,18.68 -18.64,24.45 -11.43,48.16 6.93,68.23z"/>
 </g>
</svg>
