<?xml version="1.0" encoding="UTF-8"?>
<!DOCTYPE svg PUBLIC "-//W3C//DTD SVG 1.1//EN" "http://www.w3.org/Graphics/SVG/1.1/DTD/svg11.dtd">
<!-- Creator: CorelDRAW 2021 (64-Bit) -->
<svg xmlns="http://www.w3.org/2000/svg" xml:space="preserve" width="3.02667in" height="3.02667in" version="1.1" style="shape-rendering:geometricPrecision; text-rendering:geometricPrecision; image-rendering:optimizeQuality; fill-rule:evenodd; clip-rule:evenodd"
viewBox="0 0 884.97 884.97"
 xmlns:xlink="http://www.w3.org/1999/xlink"
 xmlns:xodm="http://www.corel.com/coreldraw/odm/2003">
 <defs>
  <style type="text/css">
   <![CDATA[
    .fil0 {fill:black}
   ]]>
  </style>
 </defs>
 <g id="Layer_x0020_1">
  <metadata id="CorelCorpID_0Corel-Layer"/>
  <path class="fil0" d="M442.48 0c244.38,0 442.48,198.11 442.48,442.48 0,244.38 -198.11,442.48 -442.48,442.48 -244.38,0 -442.48,-198.11 -442.48,-442.48 0,-244.38 198.11,-442.48 442.48,-442.48zm-77.33 221.53l64.35 64.91c7.77,-0.26 25.34,-7.48 44.21,9.92 13.39,12.34 14.62,28.98 10.76,45.59l62.13 62.7c16.54,-2.98 33.19,-3.38 45.83,10.52 15.48,17.03 16.75,42.86 0.61,59.66 -16.62,17.3 -41.3,18.52 -60.46,2.4 -13.46,-11.32 -17.76,-34.08 -10.55,-49.1 -8.32,-5.57 -52.71,-55.59 -59.66,-57.45l0 153.56c40.33,21.34 28.78,81.75 -20.99,81.75 -37.87,0 -56.82,-53.39 -23.23,-77.36 2.97,-2.12 9.98,-4.19 9.98,-7.7l0 -150.24c0,-4.3 -6.43,-4.99 -13.69,-11.72l-1.13 -1.08c-16.28,-16.28 -13.26,-30.63 -9.48,-46.86l-63.8 -64.35c-5.97,4.09 -146.43,145.88 -162.95,162.4 -4.1,4.1 -7.87,7.01 -11.26,11.94 -3.48,5.06 -5.51,10.77 -6.14,16.61l0 7.9c0.91,8.44 4.7,16.69 11.31,23.22l244.71 244.7c6.84,6.93 15.06,10.89 23.43,11.87l8.26 0c8.08,-0.95 15.94,-4.72 22.45,-11.31l243.59 -243.6c6.93,-6.84 10.89,-15.06 11.87,-23.43l0 -8.26c-0.95,-8.09 -4.72,-15.94 -11.31,-22.45 -6.19,-6.11 -11.53,-11.51 -17.69,-17.67l-227.02 -227.03c-11.07,-11.21 -17.53,-11.87 -31.21,-11.87 -17.02,0 -40.74,29.14 -56.07,44.47 -4.7,4.7 -13.61,12.56 -16.85,17.4z"/>
 </g>
</svg>
