<?xml version="1.0" encoding="UTF-8"?>
<!DOCTYPE svg PUBLIC "-//W3C//DTD SVG 1.1//EN" "http://www.w3.org/Graphics/SVG/1.1/DTD/svg11.dtd">
<!-- Creator: CorelDRAW 2021 (64-Bit) -->
<svg xmlns="http://www.w3.org/2000/svg" xml:space="preserve" width="3.03333in" height="3.03333in" version="1.1" style="shape-rendering:geometricPrecision; text-rendering:geometricPrecision; image-rendering:optimizeQuality; fill-rule:evenodd; clip-rule:evenodd"
viewBox="0 0 2910.75 2910.75"
 xmlns:xlink="http://www.w3.org/1999/xlink"
 xmlns:xodm="http://www.corel.com/coreldraw/odm/2003">
 <defs>
  <style type="text/css">
   <![CDATA[
    .str0 {stroke:#373435;stroke-width:6.4;stroke-miterlimit:2.61313}
    .fil0 {fill:black}
   ]]>
  </style>
 </defs>
 <g id="Layer_x0020_1">
  <metadata id="CorelCorpID_0Corel-Layer"/>
  <path class="fil0 str0" d="M1455.38 3.2c802.02,0 1452.18,650.16 1452.18,1452.18 0,802.02 -650.16,1452.18 -1452.18,1452.18 -802.02,0 -1452.18,-650.16 -1452.18,-1452.18 0,-802.02 650.16,-1452.18 1452.18,-1452.18zm-420.18 907.79c-125.81,87.24 -127.63,414.43 -80.07,542.24 57.66,154.92 205.4,251.81 407.46,276.01 -26.41,66.69 -35.83,37.19 -51.41,166.81 -274.37,72.56 -299.94,-106.52 -382.48,-178.05 -30.09,-26.08 -103.87,-66.03 -157.49,-36.37 2.74,29.82 34.27,35.31 55.52,59.08 108,120.75 108.95,262.14 276.4,314.29 79.26,24.68 128.82,15.54 209.71,5.84l-0.18 217.66c115.32,5.61 320.39,3.52 441.01,0.89 -0.23,-117.81 10.5,-381.67 -14.86,-468.36 -10.56,-36.12 -28.11,-58.92 -35.26,-81.89 202.95,-22.72 345.64,-120.97 405.7,-272.26 49.34,-124.3 48.38,-455.62 -78.42,-545.45 5.48,-51.53 26.35,-76.81 25.12,-144.24 -1.11,-60.69 -16.35,-88.71 -27.2,-138.37 -57.53,5.92 -96.59,32.83 -130.12,60.79 -52.85,44.11 -55.22,61.72 -83.83,92.38 -6.29,6.74 -3.43,4.22 -9,8.38 -96.33,-60.68 -305.65,-60.97 -428.42,-41.83 -67.19,10.48 -74.73,23.11 -124.08,43.54 -13.5,-34.47 -61.44,-80.41 -86.43,-101.68 -36.59,-31.16 -68.68,-54.67 -129.56,-61.66 -10.97,50.14 -26.17,77.18 -27.23,138.42 -1.2,68.24 19.18,91.85 25.13,143.85z"/>
 </g>
</svg>
