<?xml version="1.0" encoding="UTF-8"?>
<!DOCTYPE svg PUBLIC "-//W3C//DTD SVG 1.1//EN" "http://www.w3.org/Graphics/SVG/1.1/DTD/svg11.dtd">
<!-- Creator: CorelDRAW 2021 (64-Bit) -->
<svg xmlns="http://www.w3.org/2000/svg" xml:space="preserve" width="3.03333in" height="3.03333in" version="1.1" style="shape-rendering:geometricPrecision; text-rendering:geometricPrecision; image-rendering:optimizeQuality; fill-rule:evenodd; clip-rule:evenodd"
viewBox="0 0 494.98 494.98"
 xmlns:xlink="http://www.w3.org/1999/xlink"
 xmlns:xodm="http://www.corel.com/coreldraw/odm/2003">
 <defs>
  <style type="text/css">
   <![CDATA[
    .str0 {stroke:#373435;stroke-width:1.09;stroke-miterlimit:2.61313}
    .fil0 {fill:black}
   ]]>
  </style>
 </defs>
 <g id="Layer_x0020_1">
  <metadata id="CorelCorpID_0Corel-Layer"/>
  <path class="fil0 str0" d="M247.49 0.54c136.38,0 246.95,110.56 246.95,246.95 0,136.38 -110.56,246.95 -246.95,246.95 -136.38,0 -246.95,-110.56 -246.95,-246.95 0,-136.38 110.56,-246.95 246.95,-246.95zm-0.02 257.28l0 0 66.05 -0 -6.22 69.57 -59.83 16.15 0 0 -0.05 0.01 -59.74 -16.13 -3.82 -42.78 -29.03 0 -24.82 0 7.51 84.22 109.88 30.5 0.25 -0.07 0 -0.01 109.78 -30.43 0.81 -9.06 12.61 -141.22 1.31 -14.4 -14.45 0 -110.05 0 -0.18 0 -70.8 0 -4.9 -54.93 75.7 0 0.18 0 129.21 0 0.17 0 1.07 -12.06 2.44 -27.19 1.28 -14.39 -134.19 0 -0.18 0 -134.32 0 1.28 14.39 13.18 147.82 119.85 0z"/>
 </g>
</svg>
