<?xml version="1.0" encoding="UTF-8"?>
<!DOCTYPE svg PUBLIC "-//W3C//DTD SVG 1.1//EN" "http://www.w3.org/Graphics/SVG/1.1/DTD/svg11.dtd">
<!-- Creator: CorelDRAW 2021 (64-Bit) -->
<svg xmlns="http://www.w3.org/2000/svg" xml:space="preserve" width="0.476508in" height="0.476504in" version="1.1" style="shape-rendering:geometricPrecision; text-rendering:geometricPrecision; image-rendering:optimizeQuality; fill-rule:evenodd; clip-rule:evenodd"
viewBox="0 0 154.37 154.37"
 xmlns:xlink="http://www.w3.org/1999/xlink"
 xmlns:xodm="http://www.corel.com/coreldraw/odm/2003">
 <defs>
  <style type="text/css">
   <![CDATA[
    .fil1 {fill:#101010}
    .fil0 {fill:#8D8D94}
   ]]>
  </style>
 </defs>
 <g id="Layer_x0020_1">
  <metadata id="CorelCorpID_0Corel-Layer"/>
  <g id="_2721194215472">
   <path class="fil0" d="M75.87 63.75c0.11,-11.62 4.21,-19.82 14.68,-21.37 15.49,-2.3 8.75,9.22 26.05,1.62 -0.77,4.86 -3.09,3.88 -4.23,8.75l6.78 -1.91c-2.77,6.08 -6.59,5.49 -7.82,11 -2.65,11.9 -2.51,26.07 -17.87,38.85 -18.49,15.4 -34.11,12.95 -57.53,5.27l3.76 -1.63c0.02,-0.01 2.69,-0.42 3.01,-0.46 5.61,-0.79 11.47,-1.86 15.58,-6.26 -7.02,-4.35 -9.27,-3.36 -13.72,-10.83l4.4 -3.71c-6.85,-2.38 -9.18,-6.3 -11.49,-14.34 0.22,-0.15 0.62,-0.21 0.77,-0.25l5.26 -0.95c-8,-10.37 -6.99,-22.12 -2.12,-20.47 1.27,0.43 0.79,0.3 1.91,1.18 3.8,2.95 4.17,5.19 11.44,9.17 6.44,3.52 12.76,5.59 21.14,6.34zm-10.27 -62.6c-24.1,4.17 -38.19,14.84 -49.28,28.48 -10.89,13.4 -19.31,36.42 -15.32,59.95 6.39,37.72 42.1,71.53 88.52,63.64 37.71,-6.41 71.57,-42.04 63.69,-88.46 -6.35,-37.39 -41.91,-71.51 -87.61,-63.6z"/>
   <path class="fil1" d="M75.87 63.89c-8.37,-0.75 -14.7,-2.82 -21.14,-6.34 -7.28,-3.98 -7.64,-6.22 -11.44,-9.17 -1.12,-0.87 -0.65,-0.74 -1.91,-1.18 -4.87,-1.65 -5.88,10.1 2.12,20.47l-5.26 0.95c-0.15,0.04 -0.55,0.1 -0.77,0.25 2.31,8.05 4.64,11.96 11.49,14.34l-4.4 3.71c4.45,7.47 6.7,6.48 13.72,10.83 -4.1,4.4 -9.96,5.47 -15.58,6.26 -0.32,0.04 -2.99,0.46 -3.01,0.46l-3.76 1.63c23.42,7.68 39.04,10.12 57.53,-5.27 15.35,-12.78 15.22,-26.95 17.87,-38.85 1.23,-5.51 5.04,-4.92 7.82,-11l-6.78 1.91c1.14,-4.87 3.46,-3.89 4.23,-8.75 -17.3,7.6 -10.56,-3.92 -26.05,-1.62 -10.47,1.56 -14.57,9.75 -14.68,21.37z"/>
  </g>
 </g>
</svg>
