<?xml version="1.0" encoding="UTF-8"?>
<!DOCTYPE svg PUBLIC "-//W3C//DTD SVG 1.1//EN" "http://www.w3.org/Graphics/SVG/1.1/DTD/svg11.dtd">
<!-- Creator: CorelDRAW 2021 (64-Bit) -->
<svg xmlns="http://www.w3.org/2000/svg" xml:space="preserve" width="0.47422in" height="0.47422in" version="1.1" style="shape-rendering:geometricPrecision; text-rendering:geometricPrecision; image-rendering:optimizeQuality; fill-rule:evenodd; clip-rule:evenodd"
viewBox="0 0 325.99 325.99"
 xmlns:xlink="http://www.w3.org/1999/xlink"
 xmlns:xodm="http://www.corel.com/coreldraw/odm/2003">
 <defs>
  <style type="text/css">
   <![CDATA[
    .fil0 {fill:black}
   ]]>
  </style>
 </defs>
 <g id="Layer_x0020_1">
  <metadata id="CorelCorpID_0Corel-Layer"/>
  <path class="fil0" d="M163 0c90.02,0 163,72.98 163,163 0,90.02 -72.98,163 -163,163 -90.02,0 -163,-72.98 -163,-163 0,-90.02 72.98,-163 163,-163zm-3.73 61.06c-6.97,2.96 -51.48,33.72 -61.96,40.64 -10.45,6.89 -20.7,13.73 -31.01,20.63 -7.52,5.04 -6.29,8.46 -6.25,19.24l0.02 51.71c0.62,8.65 6.02,10.18 11.53,13.87l61.98 41.32c5.6,3.7 9.78,6.51 15.17,10.11 18.59,12.38 14.8,9.17 49,-13.61l62 -41.28c7.42,-5.04 6.27,-8.56 6.23,-19.26l-0.02 -51.71c-0.62,-8.65 -5.96,-10.2 -11.5,-13.89l-77.15 -51.43c-4.47,-2.97 -10.98,-9.33 -18.03,-6.34zm68.96 102.65c5.72,2.15 12.17,8.77 17.26,10.33l0.01 -22.09 -16.13 10.49c-0.16,0.16 -0.45,0.49 -0.58,0.63 -0.13,0.14 -0.39,0.42 -0.57,0.65zm-147.74 10.37c2.81,-0.84 5.35,-2.98 8.37,-4.99l8.96 -6.84c-5.79,-2.14 -12.17,-8.8 -17.33,-10.35l0 22.18zm55.04 -11.07c3.22,2.9 24.68,17.12 28.04,18.15l26.95 -18.14 -26.95 -18.19c-3.2,0.99 -25.13,15.43 -28.04,18.18zm37.69 -37.93c1.82,3.43 5.37,4.96 8.57,7.07l27.92 18.11c3.83,-2.03 24.69,-15.59 27.13,-18.3l-63.58 -42.02 -0.04 35.14zm-83.98 7.29l27.07 17.88c2.35,-0.95 35.67,-21.77 36.5,-25.18l-0.06 -35.05c-4.5,1.75 -11.73,7.25 -16.21,10.24l-47.31 32.1zm0 61.25l46.65 31.66c4.84,3.23 12.23,8.87 16.85,10.68l0.07 -35.05c-0.83,-3.4 -34.15,-24.23 -36.5,-25.18 -4.27,2.29 -9.09,5.8 -13.29,8.61 -4.5,3.01 -9.27,5.89 -13.78,9.27zm83.98 7.29l0.03 35.14c4.61,-1.86 11.62,-7.23 16.25,-10.31l47.35 -31.71c-2.44,-2.71 -23.3,-16.27 -27.13,-18.3 -5.31,2.26 -13.19,8.32 -18.69,11.96 -3.39,2.25 -5.81,3.89 -9.24,6.15 -3.2,2.11 -6.75,3.64 -8.58,7.07z"/>
 </g>
</svg>
