<?xml version="1.0" encoding="UTF-8"?>
<!DOCTYPE svg PUBLIC "-//W3C//DTD SVG 1.1//EN" "http://www.w3.org/Graphics/SVG/1.1/DTD/svg11.dtd">
<!-- Creator: CorelDRAW 2021 (64-Bit) -->
<svg xmlns="http://www.w3.org/2000/svg" xml:space="preserve" width="0.47422in" height="0.47422in" version="1.1" style="shape-rendering:geometricPrecision; text-rendering:geometricPrecision; image-rendering:optimizeQuality; fill-rule:evenodd; clip-rule:evenodd"
viewBox="0 0 45.95 45.95"
 xmlns:xlink="http://www.w3.org/1999/xlink"
 xmlns:xodm="http://www.corel.com/coreldraw/odm/2003">
 <defs>
  <style type="text/css">
   <![CDATA[
    .fil1 {fill:#101010}
    .fil0 {fill:#8D8D94}
   ]]>
  </style>
 </defs>
 <g id="Layer_x0020_1">
  <metadata id="CorelCorpID_0Corel-Layer"/>
  <circle class="fil0" cx="22.97" cy="22.97" r="22.97"/>
  <g id="_2721188924400">
   <path class="fil1" d="M22.45 8.61c-0.98,0.42 -7.26,4.75 -8.73,5.73 -1.47,0.97 -2.92,1.93 -4.37,2.91 -1.06,0.71 -0.89,1.19 -0.88,2.71l0 7.29c0.09,1.22 0.85,1.43 1.62,1.95l8.74 5.82c0.79,0.52 1.38,0.92 2.14,1.42 2.62,1.74 2.09,1.29 6.91,-1.92l8.74 -5.82c1.05,-0.71 0.88,-1.21 0.88,-2.71l-0 -7.29c-0.09,-1.22 -0.84,-1.44 -1.62,-1.96l-10.87 -7.25c-0.63,-0.42 -1.55,-1.32 -2.54,-0.89z"/>
   <path class="fil0" d="M24.41 28.32l0 4.95c0.65,-0.26 1.64,-1.02 2.29,-1.45l6.67 -4.47c-0.34,-0.38 -3.28,-2.29 -3.82,-2.58 -0.75,0.32 -1.86,1.17 -2.63,1.69 -0.48,0.32 -0.82,0.55 -1.3,0.87 -0.45,0.3 -0.95,0.51 -1.21,1z"/>
   <path class="fil0" d="M12.58 27.29l6.58 4.46c0.68,0.45 1.72,1.25 2.37,1.51l0.01 -4.94c-0.12,-0.48 -4.81,-3.41 -5.14,-3.55 -0.6,0.32 -1.28,0.82 -1.87,1.21 -0.63,0.42 -1.31,0.83 -1.94,1.31z"/>
   <path class="fil0" d="M12.58 18.66l3.82 2.52c0.33,-0.13 5.03,-3.07 5.15,-3.55l-0.01 -4.94c-0.63,0.25 -1.65,1.02 -2.28,1.44l-6.67 4.52z"/>
   <path class="fil0" d="M24.41 17.63c0.26,0.48 0.76,0.7 1.21,1l3.94 2.55c0.54,-0.29 3.48,-2.2 3.82,-2.58l-8.96 -5.92 -0.01 4.95z"/>
   <path class="fil0" d="M19.1 22.98c0.45,0.41 3.48,2.41 3.95,2.56l3.8 -2.56 -3.8 -2.56c-0.45,0.14 -3.54,2.18 -3.95,2.56z"/>
   <path class="fil0" d="M11.34 24.54c0.4,-0.12 0.75,-0.42 1.18,-0.7l1.26 -0.96c-0.82,-0.3 -1.72,-1.24 -2.44,-1.46l0 3.13z"/>
   <path class="fil0" d="M32.17 23.08c0.81,0.3 1.71,1.24 2.43,1.46l0 -3.11 -2.27 1.48c-0.02,0.02 -0.06,0.07 -0.08,0.09 -0.02,0.02 -0.06,0.06 -0.08,0.09z"/>
  </g>
 </g>
</svg>
