<?xml version="1.0" encoding="UTF-8"?>
<!DOCTYPE svg PUBLIC "-//W3C//DTD SVG 1.1//EN" "http://www.w3.org/Graphics/SVG/1.1/DTD/svg11.dtd">
<!-- Creator: CorelDRAW 2021 (64-Bit) -->
<svg xmlns="http://www.w3.org/2000/svg" xml:space="preserve" width="0.476504in" height="0.4765in" version="1.1" style="shape-rendering:geometricPrecision; text-rendering:geometricPrecision; image-rendering:optimizeQuality; fill-rule:evenodd; clip-rule:evenodd"
viewBox="0 0 77.98 77.98"
 xmlns:xlink="http://www.w3.org/1999/xlink"
 xmlns:xodm="http://www.corel.com/coreldraw/odm/2003">
 <defs>
  <style type="text/css">
   <![CDATA[
    .fil1 {fill:#101010}
    .fil0 {fill:#8D8D94}
   ]]>
  </style>
 </defs>
 <g id="Layer_x0020_1">
  <metadata id="CorelCorpID_0Corel-Layer"/>
  <g id="_2721547161792">
   <path class="fil0" d="M19.38 30.17l9.31 -0 0 28.03 -9.32 -0.03 0.01 -28zm17.94 -30.17l3.82 0c4.92,0.24 9.8,1.42 14.35,3.6 8.4,4.03 15,10.5 18.94,18.99 2.6,5.6 3.55,10.42 3.55,17.47 0,14.65 -9.57,28.33 -22.59,34.37 -5.58,2.59 -10.44,3.55 -17.47,3.55 -14.6,0 -28.32,-9.53 -34.37,-22.59 -2.6,-5.6 -3.55,-10.42 -3.55,-17.47 0,-10.08 4.83,-19.98 11.39,-26.54 6.97,-6.97 16.37,-10.92 25.94,-11.39zm5.86 34.05c0.48,-0.92 2.26,-2.63 3.2,-3.2 4.21,-2.54 10.94,-1.56 13.89,3.15 2.02,3.21 2.01,6.82 2.01,11.08 0,4.37 0,8.74 0,13.12l-9.32 0c0,-4.42 -0,-8.85 0,-13.27 0,-4.14 -0.42,-8.21 -4.98,-8.04 -2.05,0.07 -3.33,1.32 -4.05,2.48 -1,1.61 -0.77,3.63 -0.77,5.72 0,4.37 0,8.75 0,13.12l-9.31 -0.03 -0.01 -28 9.31 -0 0.03 3.88zm-20.58 -17.17c7.24,-1.74 9.13,7.8 2.94,9.27 -7.19,1.72 -9.31,-7.75 -2.94,-9.27z"/>
   <path class="fil1" d="M43.19 34.05l-0.03 -3.88 -9.31 0 0.01 28 9.31 0.03c0,-4.37 0,-8.75 0,-13.12 0,-2.09 -0.23,-4.1 0.77,-5.72 0.72,-1.15 2.01,-2.4 4.05,-2.48 4.56,-0.17 4.98,3.9 4.98,8.04 -0,4.42 0,8.85 0,13.27l9.32 0c0,-4.38 0,-8.75 0,-13.12 0,-4.26 0,-7.87 -2.01,-11.08 -2.96,-4.71 -9.68,-5.69 -13.89,-3.15 -0.94,0.57 -2.72,2.28 -3.2,3.2z"/>
   <polygon class="fil1" points="19.37,58.18 28.69,58.2 28.69,30.17 19.38,30.17 "/>
   <path class="fil1" d="M22.61 16.88c-6.37,1.53 -4.25,10.99 2.94,9.27 6.19,-1.48 4.31,-11.01 -2.94,-9.27z"/>
  </g>
 </g>
</svg>
