<?xml version="1.0" encoding="UTF-8"?>
<!DOCTYPE svg PUBLIC "-//W3C//DTD SVG 1.1//EN" "http://www.w3.org/Graphics/SVG/1.1/DTD/svg11.dtd">
<!-- Creator: CorelDRAW 2021 (64-Bit) -->
<svg xmlns="http://www.w3.org/2000/svg" xml:space="preserve" width="0.476504in" height="0.4765in" version="1.1" style="shape-rendering:geometricPrecision; text-rendering:geometricPrecision; image-rendering:optimizeQuality; fill-rule:evenodd; clip-rule:evenodd"
viewBox="0 0 476.5 476.5"
 xmlns:xlink="http://www.w3.org/1999/xlink"
 xmlns:xodm="http://www.corel.com/coreldraw/odm/2003">
 <defs>
  <style type="text/css">
   <![CDATA[
    .fil0 {fill:#8D8D94}
   ]]>
  </style>
 </defs>
 <g id="Layer_x0020_1">
  <metadata id="CorelCorpID_0Corel-Layer"/>
  <path class="fil0" d="M118.41 184.37l56.87 -0.01 0 171.28 -56.96 -0.16 0.08 -171.11zm109.65 -184.37l23.35 0c30.06,1.48 59.91,8.68 87.67,22.01 51.33,24.64 91.66,64.18 115.7,116.03 15.86,34.2 21.71,63.67 21.71,106.72 0,89.52 -58.47,173.13 -138.04,210.02 -34.1,15.81 -63.79,21.71 -106.72,21.71 -89.2,0 -173.02,-58.24 -210.03,-138.04 -15.86,-34.2 -21.71,-63.67 -21.71,-106.72 0,-61.57 29.48,-122.09 69.57,-162.17 42.56,-42.57 100.01,-66.72 158.49,-69.57zm35.83 208.07c2.91,-5.64 13.78,-16.08 19.54,-19.56 25.74,-15.54 66.84,-9.52 84.9,19.24 12.31,19.61 12.29,41.67 12.29,67.71 0,26.71 0,53.42 0,80.15l-56.95 0c0,-27.03 -0.01,-54.06 0,-81.08 0.01,-25.3 -2.58,-50.15 -30.44,-49.13 -12.5,0.46 -20.37,8.08 -24.76,15.13 -6.12,9.86 -4.73,22.18 -4.73,34.93 0,26.72 0,53.44 0,80.17l-56.86 -0.18 -0.04 -171.1 56.87 -0.02 0.2 23.72zm-125.76 -104.92c44.27,-10.61 55.79,47.64 17.96,56.67 -43.91,10.48 -56.88,-47.33 -17.96,-56.67z"/>
 </g>
</svg>
