<?xml version="1.0" encoding="UTF-8"?>
<!DOCTYPE svg PUBLIC "-//W3C//DTD SVG 1.1//EN" "http://www.w3.org/Graphics/SVG/1.1/DTD/svg11.dtd">
<!-- Creator: CorelDRAW 2021 (64-Bit) -->
<svg xmlns="http://www.w3.org/2000/svg" xml:space="preserve" width="0.476504in" height="0.476504in" version="1.1" style="shape-rendering:geometricPrecision; text-rendering:geometricPrecision; image-rendering:optimizeQuality; fill-rule:evenodd; clip-rule:evenodd"
viewBox="0 0 8533.92 8533.92"
 xmlns:xlink="http://www.w3.org/1999/xlink"
 xmlns:xodm="http://www.corel.com/coreldraw/odm/2003">
 <defs>
  <style type="text/css">
   <![CDATA[
    .fil1 {fill:#101010}
    .fil0 {fill:#8D8D94}
    .fil2 {fill:#96979E}
   ]]>
  </style>
 </defs>
 <g id="Layer_x0020_1">
  <metadata id="CorelCorpID_0Corel-Layer"/>
  <g id="_2721551898240">
   <path class="fil0" d="M2121.85 2802.12c0,-518.32 162.52,-678.87 680.49,-678.87l2927.14 0c515.57,0 679.43,162.81 679.43,678.87l0 2927.14c0,516.62 -162.38,680.49 -675.34,680.49l-2931.23 0c-520.01,0 -680.49,-160.97 -680.49,-680.49l0 -2927.14zm1507.92 -2738.52c-2463.82,426.51 -3955.52,2606.04 -3569.06,4888.57 353.11,2085.46 2325.76,3954.11 4890.97,3517.94 2083.21,-354.17 3954.18,-2324.28 3518.64,-4890.26 -350.79,-2067.06 -2315.54,-3953.33 -4840.56,-3516.24z"/>
   <path class="fil1" d="M4081.59 3451.87c1058.7,-288.24 1487.19,1347.3 438.15,1609.03 -1157.56,288.81 -1591.97,-1294.84 -438.15,-1609.03zm1469.07 499.56l322.72 -90.32 3.17 1996.9 -3204.38 22.07 -23.2 -2008.25 337.81 67.69c-427.5,2275.84 3060.47,2087.58 2563.87,11.92zm305.94 -1268.26c34.48,458.59 56.69,340.21 -34.34,765.88 -829.9,38.57 -790.77,119.37 -725.61,-768.2l759.95 2.33zm-3734.75 118.95l0 2927.14c0,519.51 160.48,680.49 680.49,680.49l2931.23 0c512.96,0 675.34,-163.86 675.34,-680.49l0 -2927.14c0,-516.06 -163.86,-678.87 -679.43,-678.87l-2927.14 0c-517.96,0 -680.49,160.55 -680.49,678.87z"/>
   <path class="fil2" d="M5550.66 3951.43c496.6,2075.66 -2991.37,2263.92 -2563.87,-11.92l-337.81 -67.69 23.2 2008.25 3204.38 -22.07 -3.17 -1996.9 -322.72 90.32z"/>
   <path class="fil2" d="M4081.59 3451.87c-1153.82,314.19 -719.41,1897.84 438.15,1609.03 1049.04,-261.73 620.56,-1897.27 -438.15,-1609.03z"/>
   <path class="fil2" d="M5096.65 2680.85c-65.15,887.57 -104.28,806.77 725.61,768.2 91.03,-425.67 68.82,-307.28 34.34,-765.88l-759.95 -2.33z"/>
  </g>
 </g>
</svg>
