<?xml version="1.0" encoding="UTF-8"?>
<!DOCTYPE svg PUBLIC "-//W3C//DTD SVG 1.1//EN" "http://www.w3.org/Graphics/SVG/1.1/DTD/svg11.dtd">
<!-- Creator: CorelDRAW 2021 (64-Bit) -->
<svg xmlns="http://www.w3.org/2000/svg" xml:space="preserve" width="0.476508in" height="0.476504in" version="1.1" style="shape-rendering:geometricPrecision; text-rendering:geometricPrecision; image-rendering:optimizeQuality; fill-rule:evenodd; clip-rule:evenodd"
viewBox="0 0 164.92 164.92"
 xmlns:xlink="http://www.w3.org/1999/xlink"
 xmlns:xodm="http://www.corel.com/coreldraw/odm/2003">
 <defs>
  <style type="text/css">
   <![CDATA[
    .fil1 {fill:#101010}
    .fil0 {fill:#8D8D94}
   ]]>
  </style>
 </defs>
 <g id="Layer_x0020_1">
  <metadata id="CorelCorpID_0Corel-Layer"/>
  <g id="_2721195659808">
   <path class="fil0" d="M119.65 82.59c-3.41,8.58 -11.5,14.15 -23.01,15.44 0.41,1.3 1.4,2.6 2,4.64 1.44,4.92 0.83,19.88 0.84,26.56 -6.84,0.15 -18.47,0.27 -25.01,-0.05l0.01 -12.35c-4.59,0.55 -7.4,1.07 -11.89,-0.33 -9.5,-2.96 -9.55,-10.98 -15.68,-17.82 -1.2,-1.35 -2.99,-1.66 -3.15,-3.35 3.04,-1.68 7.23,0.58 8.93,2.06 4.68,4.06 6.13,14.21 21.69,10.1 0.88,-7.35 1.42,-5.68 2.92,-9.46 -11.46,-1.37 -19.84,-6.87 -23.11,-15.65 -2.7,-7.25 -2.59,-25.8 4.54,-30.75 -0.34,-2.95 -1.49,-4.29 -1.43,-8.16 0.06,-3.47 0.92,-5.01 1.54,-7.85 3.45,0.4 5.27,1.73 7.35,3.5 1.42,1.21 4.14,3.81 4.9,5.77 2.8,-1.16 3.23,-1.87 7.04,-2.47 6.96,-1.08 18.84,-1.07 24.3,2.37 0.32,-0.24 0.15,-0.09 0.51,-0.47 1.62,-1.74 1.76,-2.74 4.76,-5.24 1.9,-1.59 4.12,-3.11 7.38,-3.45 0.62,2.82 1.48,4.41 1.54,7.85 0.07,3.82 -1.11,5.26 -1.43,8.18 7.19,5.09 7.25,23.88 4.45,30.94zm-31.76 -82.59l-9.98 0c-0.93,0.34 -7.3,0.86 -9.1,1.15 -28.18,4.59 -51.55,23.7 -62.38,49.39 -4.2,9.97 -6.83,21.92 -6.36,34.16 0.49,12.88 3.12,22.49 7.76,32.79 5.29,11.74 13.59,21.53 22.29,28.59 5.68,4.61 11.58,8.53 18.65,11.63 21.41,9.38 45.42,9.74 66.97,0.2 8.32,-3.68 17.85,-10.02 24.29,-16.3 12.01,-11.72 23.85,-31.32 24.83,-56.26 0.51,-12.89 -1.98,-23.63 -6.15,-34.35 -3.88,-9.99 -10.27,-18.43 -15.84,-24.75 -4.86,-5.52 -14.49,-13.11 -23.16,-17.42 -17.44,-8.66 -28.99,-7.71 -31.82,-8.83z"/>
   <path class="fil1" d="M58.74 51.64c-7.14,4.95 -7.24,23.5 -4.54,30.75 3.27,8.79 11.65,14.28 23.11,15.65 -1.5,3.78 -2.03,2.11 -2.92,9.46 -15.56,4.12 -17.01,-6.04 -21.69,-10.1 -1.71,-1.48 -5.89,-3.74 -8.93,-2.06 0.16,1.69 1.94,2 3.15,3.35 6.12,6.85 6.18,14.87 15.68,17.82 4.5,1.4 7.31,0.88 11.89,0.33l-0.01 12.35c6.54,0.32 18.17,0.2 25.01,0.05 -0.01,-6.68 0.6,-21.64 -0.84,-26.56 -0.6,-2.05 -1.59,-3.34 -2,-4.64 11.51,-1.29 19.6,-6.86 23.01,-15.44 2.8,-7.05 2.74,-25.84 -4.45,-30.94 0.31,-2.92 1.49,-4.36 1.43,-8.18 -0.06,-3.44 -0.93,-5.03 -1.54,-7.85 -3.26,0.34 -5.48,1.86 -7.38,3.45 -3,2.5 -3.13,3.5 -4.76,5.24 -0.36,0.38 -0.19,0.24 -0.51,0.47 -5.46,-3.44 -17.33,-3.46 -24.3,-2.37 -3.81,0.6 -4.24,1.31 -7.04,2.47 -0.77,-1.96 -3.48,-4.56 -4.9,-5.77 -2.08,-1.77 -3.9,-3.1 -7.35,-3.5 -0.62,2.84 -1.48,4.38 -1.54,7.85 -0.07,3.87 1.09,5.21 1.43,8.16z"/>
  </g>
 </g>
</svg>
