<?xml version="1.0" encoding="UTF-8"?>
<!DOCTYPE svg PUBLIC "-//W3C//DTD SVG 1.1//EN" "http://www.w3.org/Graphics/SVG/1.1/DTD/svg11.dtd">
<!-- Creator: CorelDRAW 2021 (64-Bit) -->
<svg xmlns="http://www.w3.org/2000/svg" xml:space="preserve" width="0.476504in" height="0.476504in" version="1.1" style="shape-rendering:geometricPrecision; text-rendering:geometricPrecision; image-rendering:optimizeQuality; fill-rule:evenodd; clip-rule:evenodd"
viewBox="0 0 31.97 31.97"
 xmlns:xlink="http://www.w3.org/1999/xlink"
 xmlns:xodm="http://www.corel.com/coreldraw/odm/2003">
 <defs>
  <style type="text/css">
   <![CDATA[
    .fil0 {fill:black}
   ]]>
  </style>
 </defs>
 <g id="Layer_x0020_1">
  <metadata id="CorelCorpID_0Corel-Layer"/>
  <g id="_1327156904176">
   <path class="fil0" d="M7.95 10.5c0,-1.94 0.61,-2.54 2.55,-2.54l10.97 0c1.93,0 2.55,0.61 2.55,2.54l0 10.97c0,1.94 -0.61,2.55 -2.53,2.55l-10.98 0c-1.95,0 -2.55,-0.6 -2.55,-2.55l0 -10.97zm5.65 -10.26c-9.23,1.6 -14.82,9.76 -13.37,18.31 1.32,7.81 8.71,14.81 18.32,13.18 7.8,-1.33 14.81,-8.71 13.18,-18.32 -1.31,-7.74 -8.68,-14.81 -18.14,-13.17z"/>
   <path class="fil0" d="M20.8 14.8c1.86,7.78 -11.21,8.48 -9.61,-0.04l-1.27 -0.25 0.09 7.52 12.01 -0.08 -0.01 -7.48 -1.21 0.34z"/>
   <path class="fil0" d="M15.29 12.93c-4.32,1.18 -2.7,7.11 1.64,6.03 3.93,-0.98 2.32,-7.11 -1.64,-6.03z"/>
   <path class="fil0" d="M19.09 10.04c-0.24,3.33 -0.39,3.02 2.72,2.88 0.34,-1.59 0.26,-1.15 0.13,-2.87l-2.85 -0.01z"/>
  </g>
 </g>
</svg>
